<svg xmlns="http://www.w3.org/2000/svg" width="47" height="59.612" viewBox="0 0 47 59.612"><g transform="translate(-75 -1022)"><circle cx="23.5" cy="23.5" r="23.5" transform="translate(75 1022)" fill="#f69c93" opacity="0.68"/><g transform="translate(-4.968 1035)"><path d="M109.793,7.982A15.818,15.818,0,0,0,96.352,0c-.239,0-.479,0-.717,0A15.818,15.818,0,0,0,82.194,7.982a16.227,16.227,0,0,0-.212,16.034L93.541,45.172l.016.028a2.81,2.81,0,0,0,4.874,0l.016-.028L110,24.016a16.228,16.228,0,0,0-.212-16.034Zm-13.8,13.139a6.555,6.555,0,1,1,6.555-6.555A6.562,6.562,0,0,1,95.993,21.121Z" transform="translate(0 0)" fill="#107e7d"/></g></g></svg>