<svg xmlns="http://www.w3.org/2000/svg" width="191.585" height="198.554" viewBox="0 0 191.585 198.554"><g transform="translate(-1339 -1084)"><path d="M189.277,22.373a11.032,11.032,0,0,0-7.368-4.236l-38.777-5.032.4-3.052a8.739,8.739,0,0,0-7.539-9.8L134.61.072a8.746,8.746,0,0,0-9.795,7.548l-.4,3.055L87.5,5.886a11.115,11.115,0,0,0-12.44,9.583L71.529,42.705l-4.335.564L64.954,26.2a8.461,8.461,0,0,0-9.48-7.3l-1.933.25a8.462,8.462,0,0,0-7.3,9.481l1.207,9.313a3.018,3.018,0,0,0,5.987-.776l-1.209-9.313a2.427,2.427,0,0,1,2.09-2.719l1.933-.25a2.423,2.423,0,0,1,2.719,2.1l2.239,17.062L9.678,50.733A11.1,11.1,0,0,0,.1,63.171l6.426,49.517a11.1,11.1,0,0,0,10.986,9.677,11.445,11.445,0,0,0,1.453-.094l38.778-5.032,9.769,75.277H57.622a3.018,3.018,0,0,0,0,6.037h74.447a3.018,3.018,0,0,0,0-6.037H119.851l.971-7.486a3.018,3.018,0,1,0-5.985-.776l-1.073,8.263h-6.923l11.142-85.63,3.043-23.36c0-.024.006-.05.009-.076l.059-.461,6.768.879-11.6,89.412a3.017,3.017,0,0,0,2.6,3.381,2.858,2.858,0,0,0,.392.026,3.018,3.018,0,0,0,2.989-2.63l11.6-89.412,38.775,5.032a11.167,11.167,0,0,0,1.451.094A11.107,11.107,0,0,0,185.064,80.1l6.427-49.517a11.038,11.038,0,0,0-2.215-8.206ZM130.8,8.4a2.709,2.709,0,0,1,3.027-2.34l1.38.182a2.7,2.7,0,0,1,2.336,3.033l-.4,3.055-6.744-.876ZM60.488,86.983l-7.236,9.3a2.46,2.46,0,0,1-3.442.435,2.755,2.755,0,0,1-.489-3.86L56.3,83.89a4,4,0,0,0-.735-5.635L46.4,71.269a2.6,2.6,0,0,1-.473-3.649,2.61,2.61,0,0,1,3.664-.464l9.231,7.035a4,4,0,0,0,5.584-.721l4.248-5.458a11.038,11.038,0,0,0,2.193,5.179c.061.08.126.158.191.236l-2.434,3.125A4,4,0,0,0,69.33,82.2l9.039,6.889a2.73,2.73,0,0,1,1.076,2.19,2.7,2.7,0,0,1-.564,1.663,2.467,2.467,0,0,1-3.442.456L66.07,86.26a4,4,0,0,0-5.582.723ZM73.595,192.516l-9.871-76.052,6.871-.892,10.1,76.945Zm27.16,0H86.781l-10.2-77.722,25.59-3.319a3.018,3.018,0,1,0-.776-5.987l-41.429,5.375-.012,0a.029.029,0,0,0-.012,0l-41.76,5.417a5.064,5.064,0,0,1-5.676-4.372L6.081,62.394a5.069,5.069,0,0,1,4.373-5.676L70.725,48.9l-1.219,9.39A8.584,8.584,0,0,0,66.778,60.6l-5.891,7.57-7.618-5.8a8.639,8.639,0,1,0-10.534,13.7l7.541,5.747-5.719,7.344A8.789,8.789,0,0,0,46.123,101.5a8.521,8.521,0,0,0,5.185,1.769,8.436,8.436,0,0,0,6.708-3.278l6-7.706,7.768,5.92a8.516,8.516,0,0,0,11.879-1.571A8.79,8.79,0,0,0,82.028,84.29l-7.4-5.64,1.362-1.75a11.239,11.239,0,0,0,2.231.527l36.646,4.755.124.951L112,106.108ZM185.505,29.8,179.079,79.32a5.067,5.067,0,0,1-5.678,4.373l-54.492-7.071-.029-.006-.03,0L79,71.441a5.027,5.027,0,0,1-2.278-.889s0,0,0,0a5.072,5.072,0,0,1-2.094-4.787l.627-4.826c.006-.039.009-.082.015-.123l5.784-44.568a5.067,5.067,0,0,1,5.679-4.373l39.86,5.173.039.006c.015,0,.029,0,.042,0l54.462,7.068A5.067,5.067,0,0,1,185.5,29.8Zm0,0" transform="translate(1338.999 1084.001)" fill="#107e7d"/><path d="M306.466,77.946a8.057,8.057,0,0,0-5.964,1.7l-5.272,4.184c-.027.021-.053.041-.08.064l-14.4,11.428L276.3,89.715a8.055,8.055,0,0,0-5.42-3.013,8.175,8.175,0,0,0-2.144.044c-.042,0-.085.011-.127.017s-.1.014-.145.023c-.077.014-.153.033-.229.053A8.1,8.1,0,0,0,263.6,99.79l9.487,11.957a8.049,8.049,0,0,0,5.422,3.013,8.226,8.226,0,0,0,.942.055,8.044,8.044,0,0,0,5.022-1.757l26.1-20.712a8.1,8.1,0,0,0-4.111-14.4Zm.359,9.671L293.314,98.339a.252.252,0,0,0-.021.017l-12.569,9.974a2.065,2.065,0,0,1-2.9-.335l-9.489-11.957a2.068,2.068,0,0,1,3.24-2.571l6.326,7.974a3.022,3.022,0,0,0,4.242.488l22.117-17.551a2.067,2.067,0,1,1,2.569,3.239Zm0,0" transform="translate(1178.695 1036.315)" fill="#107e7d"/></g></svg>