<svg xmlns="http://www.w3.org/2000/svg" width="122" height="119.01" viewBox="0 0 122 119.01"><g transform="translate(-913 -3897.985)"><circle cx="39.5" cy="39.5" r="39.5" transform="translate(956 3897.985)" fill="#f69c93" opacity="0.68"/><g transform="translate(913 3931.136)"><path d="M90.362,46.172H66.519v-6.9a4.58,4.58,0,0,0-1.792-3.621,19.921,19.921,0,0,0-4.456-2.39,28.03,28.03,0,0,0-3.541-1.15,1.435,1.435,0,1,0-.706,2.781A25.2,25.2,0,0,1,59.2,35.922a17.419,17.419,0,0,1,3.786,2.009,1.693,1.693,0,0,1,.663,1.339v6.9H60.282V41.037a1.435,1.435,0,0,0-.783-1.278,23.558,23.558,0,0,0-10.624-2.376,23.555,23.555,0,0,0-10.624,2.376,1.435,1.435,0,0,0-.783,1.278v5.135H34.1v-6.9a1.693,1.693,0,0,1,.663-1.339,17.4,17.4,0,0,1,3.786-2.009,27.951,27.951,0,0,1,10.325-1.907c.61,0,1.227.019,1.836.056a1.435,1.435,0,1,0,.175-2.864c-.667-.04-1.343-.061-2.011-.061a30.845,30.845,0,0,0-11.4,2.114,19.918,19.918,0,0,0-4.456,2.39,4.579,4.579,0,0,0-1.792,3.62v6.9H7.39A7.4,7.4,0,0,0,0,53.561v20.08a7.358,7.358,0,0,0,2.455,5.5v30.475a7.4,7.4,0,0,0,7.39,7.39H66.532a1.435,1.435,0,1,0,0-2.87H9.845a4.525,4.525,0,0,1-4.52-4.52V81.274a48,48,0,0,0,8.619,4.444,1.435,1.435,0,1,0,1.07-2.663A40.388,40.388,0,0,1,4.537,77.149,4.5,4.5,0,0,1,2.87,73.642V53.561a4.525,4.525,0,0,1,4.52-4.52H90.363a4.525,4.525,0,0,1,4.52,4.52v20.08a4.5,4.5,0,0,1-1.668,3.507,42.118,42.118,0,0,1-12.2,6.567A87.213,87.213,0,0,1,55.888,88.4V85.125a3.424,3.424,0,0,0-3.42-3.42H45.282a3.424,3.424,0,0,0-3.42,3.42V88.4a93.491,93.491,0,0,1-20.94-3.321,1.435,1.435,0,1,0-.8,2.756,96.523,96.523,0,0,0,21.739,3.438v.675a7.013,7.013,0,0,0,14.026,0v-.674c19.4-1.011,30.63-6.067,36.539-10v28.336a4.525,4.525,0,0,1-4.52,4.52H72.271a1.435,1.435,0,1,0,0,2.87H87.907a7.4,7.4,0,0,0,7.39-7.39V79.141a7.357,7.357,0,0,0,2.455-5.5V53.561a7.4,7.4,0,0,0-7.39-7.39ZM40.339,41.944a22.39,22.39,0,0,1,17.074,0v4.228H40.338V41.944ZM53.019,91.95a4.143,4.143,0,0,1-8.287,0V85.125a.551.551,0,0,1,.55-.55h7.186a.551.551,0,0,1,.55.55Z" transform="translate(0 -31.146)" fill="#107e7d"/></g></g></svg>