<svg xmlns="http://www.w3.org/2000/svg" width="56" height="59.612" viewBox="0 0 56 59.612"><g transform="translate(-392 -2454)"><circle cx="23.5" cy="23.5" r="23.5" transform="translate(401 2454)" fill="#f69c93" opacity="0.68"/><path d="M269.668,73.488a.681.681,0,1,0-.963.964l9.98,9.972a.681.681,0,0,0,.482.2h.047a.683.683,0,0,0,.5-.269A18.307,18.307,0,0,0,266.74,55.089a.682.682,0,1,0-.121,1.358,16.941,16.941,0,0,1,12.465,26.448Zm0,0" transform="translate(150.172 2417.104)" fill="#107e7d"/><path d="M141.914,55.708a.683.683,0,0,0-.74-.618,18.258,18.258,0,0,0-9.39,3.624.681.681,0,0,0-.071,1.026L144.2,72.211a.681.681,0,0,0,.963-.964l-11.915-11.9a16.887,16.887,0,0,1,8.051-2.894.682.682,0,0,0,.618-.739Zm0,0" transform="translate(272.436 2417.103)" fill="#107e7d"/><path d="M58.516,131.949a.682.682,0,0,0-.5.27,18.14,18.14,0,0,0-3.66,10.98A18.326,18.326,0,0,0,83.67,157.849a.682.682,0,0,0,.072-1.028l-24.7-24.675a.683.683,0,0,0-.53-.2Zm14.165,28.194A16.97,16.97,0,0,1,55.722,143.2a16.78,16.78,0,0,1,2.929-9.521L82.21,157.217a16.814,16.814,0,0,1-9.529,2.926Zm0,0" transform="translate(342.58 2347.227)" fill="#107e7d"/><path d="M39.709,6.807a23.276,23.276,0,0,0-32.9,0A23.241,23.241,0,0,0,21.623,46.426a.682.682,0,0,0,.094-1.36,21.91,21.91,0,1,1,3.086,0,.681.681,0,0,0,.046,1.361H24.9A23.237,23.237,0,0,0,39.709,6.807Zm0,0" transform="translate(392 2467.185)" fill="#107e7d"/></g></svg>