<svg xmlns="http://www.w3.org/2000/svg" width="280" height="257" viewBox="0 0 280 257">
  <g id="careers-svg" transform="translate(-386 -465)">
    <circle id="Ellipse_109" data-name="Ellipse 109" cx="17" cy="17" r="17" transform="translate(632 468)" fill="#f69c93"/>
    <circle id="Ellipse_111" data-name="Ellipse 111" cx="92" cy="92" r="92" transform="translate(425 465)" fill="#f69c93"/>
    <g id="XMLID_1850_" transform="translate(386 541)">
      <path id="XMLID_1911_" d="M179.977,76.127a3.538,3.538,0,0,0-3.2-.966l-30.465,6.131a3.535,3.535,0,0,0-1.8,5.965l4.122,4.122-16.176,16.176L119.935,95.033a3.535,3.535,0,0,0-5,0L99.57,110.4l5.764-20.711A16.6,16.6,0,0,0,95.182,69.713l4.608-13.163c1.271.112,2.54.169,3.794.169a43.951,43.951,0,0,0,28.024-10.13l.842-.7a9.847,9.847,0,0,0,1.614-13.628,9.806,9.806,0,0,0-14.031-1.554l-.957.795a24.341,24.341,0,0,1-4.583,3.005,14.659,14.659,0,0,1-16.78-2.951A16.154,16.154,0,1,0,79.9,25.619a18.415,18.415,0,0,0-9.5,5.36,3.531,3.531,0,0,0-.417.427A47.954,47.954,0,0,1,45.951,47.283a9.776,9.776,0,0,0-5.821,4.607l-7.245-7.245a8.14,8.14,0,0,0-11.5,0l-9.482,9.482h0L2.424,63.609a8.131,8.131,0,0,0,0,11.5l26.125,26.125a8.131,8.131,0,0,0,11.5,0l9.817-9.817-4.655,12.207a3.535,3.535,0,1,0,6.606,2.519l11.594-30.4H89.367a9.5,9.5,0,0,1,9.157,12.053l-8.032,28.861a3.023,3.023,0,0,1-2.9,2.206,3.014,3.014,0,0,1-2.977-3.487L88.885,88.5a3.535,3.535,0,0,0-3.491-4.09H77.013a3.535,3.535,0,0,0-3.155,1.939c-.206.408-20.716,40.96-27.628,54.663a3.63,3.63,0,0,1-3.738,1.944l-.168-.023a3.457,3.457,0,0,1-2.767-4.658l2.178-5.711a3.535,3.535,0,1,0-6.606-2.519l-2.178,5.711a10.528,10.528,0,0,0,8.422,14.183l.168.022a10.721,10.721,0,0,0,11-5.766C58.581,132.23,75,99.763,79.187,91.483h2.065l-3.623,22.779a10.079,10.079,0,0,0,6.892,11.188L45.143,164.827a3.535,3.535,0,0,0,0,5l10.139,10.139a3.535,3.535,0,0,0,5,0l19.492-19.492a3.535,3.535,0,0,0-5-5L57.782,172.466l-5.14-5.14,64.794-64.8,12.523,12.523a3.535,3.535,0,0,0,5,0l21.175-21.175a3.535,3.535,0,0,0,0-5l-1.958-1.958,18.788-3.781-3.781,18.788-2.91-2.91a3.536,3.536,0,0,0-5,0l-28.815,28.815-12.523-12.523a3.536,3.536,0,0,0-5,0L94.769,135.477a3.535,3.535,0,0,0,5,5l17.667-17.667,12.523,12.523a3.536,3.536,0,0,0,5,0l28.815-28.815,5.074,5.074a3.535,3.535,0,0,0,5.965-1.8l6.131-30.465A3.536,3.536,0,0,0,179.977,76.127ZM92.944,7.07a9.069,9.069,0,1,1-9.069,9.068A9.079,9.079,0,0,1,92.944,7.07ZM57.966,69.726l-4.3-4.3q3.065-1,6.015-2.282ZM46.036,57.464a2.74,2.74,0,0,1,1.872-3.387,55.139,55.139,0,0,0,16.114-7.634l-2,7.674a60.964,60.964,0,0,1-12.6,5.219c-.082.023-.167.044-.252.06a2.713,2.713,0,0,1-1.853-.318l-1.035-1.035A2.69,2.69,0,0,1,46.036,57.464Zm-19.65-7.82a1.062,1.062,0,0,1,1.5,0L40.772,62.53a9.717,9.717,0,0,0,2.113,2.113L54.011,75.769a1.061,1.061,0,0,1,0,1.5l-6.982,6.982-7.765-7.765,1.479-1.479a3.535,3.535,0,0,0,0-5L32.786,62.05a3.536,3.536,0,0,0-5,0l-1.479,1.479-6.9-6.9Zm4.839,24.882a1.326,1.326,0,0,1-1.877,0h0l-1.081-1.081a1.326,1.326,0,0,1,0-1.877l2.019-2.019,2.958,2.958Zm3.823,21.706a1.06,1.06,0,0,1-1.5,0L7.423,70.108a1.06,1.06,0,0,1,0-1.5l6.982-6.982,7.234,7.233a8.407,8.407,0,0,0,1.629,9.586l1.081,1.081h0a8.407,8.407,0,0,0,9.586,1.629l8.1,8.1ZM85.541,68.67H65.546l7.262-27.916a11.332,11.332,0,0,1,10.965-8.477,11.2,11.2,0,0,1,8.3,3.617,21.8,21.8,0,0,0,25.605,4.927,31.386,31.386,0,0,0,5.917-3.879l.957-.795a2.736,2.736,0,0,1,3.918.437,2.838,2.838,0,0,1-.536,3.869l-.842.7a36.668,36.668,0,0,1-29.154,8.056,3.532,3.532,0,0,0-3.88,2.325l-6,17.137Z" transform="translate(-0.043)" fill="#107e7d"/>
      <path id="XMLID_1920_" d="M240.531,408.8a3.537,3.537,0,1,0,2.5,1.036A3.56,3.56,0,0,0,240.531,408.8Z" transform="translate(-153.236 -264.294)" fill="#107e7d"/>
      <path id="XMLID_1921_" d="M116.421,331.21a3.531,3.531,0,1,0-2.5-1.036A3.56,3.56,0,0,0,116.421,331.21Z" transform="translate(-72.997 -209.56)" fill="#107e7d"/>
    </g>
  </g>
</svg>
