<svg xmlns="http://www.w3.org/2000/svg" width="59" height="60" viewBox="0 0 59 60"><g transform="translate(-635 -70)"><circle cx="23.5" cy="23.5" r="23.5" transform="translate(647 70)" fill="#f69c93" opacity="0.68"/><g transform="translate(-17 1)"><path d="M118.177,160.619c3.455,0,6.267-2.284,6.267-5.092a.783.783,0,1,0-1.567,0c0,1.743-1.7,3.195-3.917,3.475v-2.486a1.773,1.773,0,0,0,.238-.143l1.329-.949h0a1.9,1.9,0,0,0,.783-1.547,1.843,1.843,0,0,0-1.8-1.876h-2.659a1.843,1.843,0,0,0-1.8,1.876,1.9,1.9,0,0,0,.783,1.547l1.329.949a1.764,1.764,0,0,0,.238.143V159c-2.22-.281-3.917-1.732-3.917-3.475a.783.783,0,1,0-1.567,0C111.91,158.335,114.721,160.619,118.177,160.619Zm-1.44-6.47a.334.334,0,0,1-.126-.271.284.284,0,0,1,.237-.309h2.659a.284.284,0,0,1,.237.309.334.334,0,0,1-.126.271l-1.329.949a.182.182,0,0,1-.222,0Z" transform="translate(550.265 -56.687)" fill="#107e7d"/><circle cx="0.783" cy="0.783" r="0.783" transform="translate(672.358 93.75)" fill="#107e7d"/><circle cx="0.783" cy="0.783" r="0.783" transform="translate(662.958 93.75)" fill="#107e7d"/><path d="M355.133,254.267A3.133,3.133,0,1,0,352,251.133,3.133,3.133,0,0,0,355.133,254.267Zm0-4.7a1.567,1.567,0,1,1-1.567,1.567A1.567,1.567,0,0,1,355.133,249.567Z" transform="translate(333.684 -143.283)" fill="#107e7d"/><path d="M55.784,46.555h-4.7V36.371a.779.779,0,0,0-.142-.449h0l-5.483-7.833a.783.783,0,0,0-1.283,0l-5.483,7.833h0a.779.779,0,0,0-.141.449v4.9a12.371,12.371,0,0,0-4.271-3.562,11.634,11.634,0,0,0,2.7-7.607,12.375,12.375,0,0,0-.574-3.767,5.483,5.483,0,1,0-7.453-7.323,15.691,15.691,0,0,0-9.011,0,5.483,5.483,0,1,0-7.454,7.323,12.375,12.375,0,0,0-.575,3.767,11.635,11.635,0,0,0,2.7,7.607,11.724,11.724,0,0,0-6.524,9.512c0,.01,0,.02,0,.029L8,48.328a.753.753,0,0,0,0,.106,4.71,4.71,0,0,0,3.128,4.119,7.7,7.7,0,0,0-.78,3.4c0,3.887,2.811,7.05,6.267,7.05A5.978,5.978,0,0,0,21.3,60.634a6.578,6.578,0,0,0,6.3,0A5.978,5.978,0,0,0,32.284,63,6.249,6.249,0,0,0,37.9,59.088H55.784a.783.783,0,0,0,.783-.783V47.338A.783.783,0,0,0,55.784,46.555ZM44.818,29.9,48.8,35.588H40.839Zm-4.7,7.251h9.4v9.4h-8.8a12.751,12.751,0,0,0-.6-2.35ZM37.768,52.548a4.729,4.729,0,0,0,1.923-1.293H40.9v3.133H38.393a7.556,7.556,0,0,0-.625-1.84Zm1.476-5.17.07,1a3.14,3.14,0,0,1-2.428,2.795,6.055,6.055,0,0,0-3.835-2.217,13.631,13.631,0,0,0-2.971-8.184,11.451,11.451,0,0,0,3.04-1.892,10.3,10.3,0,0,1,6.124,8.494Zm-5.4-29.807a3.917,3.917,0,0,1,1.976,7.3,10.934,10.934,0,0,0-2.193-3.079,11.33,11.33,0,0,0-3.206-2.208A3.925,3.925,0,0,1,33.842,17.571ZM11.125,21.488a3.917,3.917,0,0,1,7.34-1.9,11.327,11.327,0,0,0-3.206,2.208,10.932,10.932,0,0,0-2.193,3.079A3.926,3.926,0,0,1,11.125,21.488Zm5.233,1.421a11.224,11.224,0,0,1,8.084-2.987,11.224,11.224,0,0,1,8.084,2.987,9.964,9.964,0,0,1,2.883,7.2,9.964,9.964,0,0,1-2.883,7.2,11.224,11.224,0,0,1-8.084,2.987A11.224,11.224,0,0,1,16.358,37.3a9.964,9.964,0,0,1-2.883-7.2A9.965,9.965,0,0,1,16.358,22.909ZM9.57,48.382l.07-1a10.3,10.3,0,0,1,6.124-8.494,11.453,11.453,0,0,0,3.055,1.9,13.687,13.687,0,0,0-2.968,8.178,6.057,6.057,0,0,0-3.838,2.22A3.14,3.14,0,0,1,9.57,48.382Zm7.048,13.057c-2.592,0-4.7-2.46-4.7-5.483s2.108-5.483,4.7-5.483,4.7,2.46,4.7,5.483S19.209,61.438,16.617,61.438Zm7.833-1.567a5.062,5.062,0,0,1-2.319-.571,7.71,7.71,0,0,0,.752-3.346c0-3.582-2.387-6.546-5.465-6.99a11.72,11.72,0,0,1,3.011-7.625,15.87,15.87,0,0,0,8.038,0,11.666,11.666,0,0,1,3.015,7.629c-3.078.444-5.465,3.408-5.465,6.99A7.71,7.71,0,0,0,26.77,59.3,5.062,5.062,0,0,1,24.451,59.872Zm7.833,1.567c-2.592,0-4.7-2.46-4.7-5.483s2.108-5.483,4.7-5.483,4.7,2.46,4.7,5.483S34.876,61.438,32.284,61.438Zm6.267-5.483h3.133a.783.783,0,0,0,.783-.783v-4.7a.783.783,0,0,0-.783-.783H40.623a4.663,4.663,0,0,0,.259-1.254.785.785,0,0,0,0-.106l-.014-.207h3.167v9.4H38.393A7.879,7.879,0,0,0,38.551,55.955ZM55,57.522H45.6v-9.4H55Z" transform="translate(643.999 65.995)" fill="#107e7d"/><path d="M408.784,366.267h4.7a.783.783,0,0,0,.7-1.134l-2.35-4.7a.783.783,0,0,0-1.4,0l-2.35,4.7a.783.783,0,0,0,.7,1.134Zm2.35-3.732,1.083,2.165h-2.165Z" transform="translate(283.167 -244.317)" fill="#107e7d"/></g></g></svg>