<svg xmlns="http://www.w3.org/2000/svg" width="65.958" height="60" viewBox="0 0 65.958 60"><g transform="translate(-1358.042 -1773)"><g transform="translate(1342.042 1769)"><path d="M274.022,179.751a2.8,2.8,0,0,1-1.553-.472l.888-1.331a1.2,1.2,0,0,0,1.331,0l.887,1.331A2.8,2.8,0,0,1,274.022,179.751Z" transform="translate(-230.822 -145.753)" fill="#107e7d"/><path d="M213.116,179.75a2.8,2.8,0,0,1-1.553-.472l.887-1.331a1.2,1.2,0,0,0,1.331,0l.888,1.331A2.8,2.8,0,0,1,213.116,179.75Z" transform="translate(-176.007 -145.753)" fill="#107e7d"/><path d="M43.2,46.4a3.2,3.2,0,1,1,3.2-3.2A3.2,3.2,0,0,1,43.2,46.4Zm0-4.8a1.6,1.6,0,1,0,1.6,1.6A1.6,1.6,0,0,0,43.2,41.6Z" transform="translate(-21.6 -21.601)" fill="#107e7d"/><path d="M387.2,406.4a3.2,3.2,0,1,1,3.2-3.2A3.2,3.2,0,0,1,387.2,406.4Zm0-4.8a1.6,1.6,0,1,0,1.6,1.6A1.6,1.6,0,0,0,387.2,401.6Z" transform="translate(-331.2 -345.6)" fill="#107e7d"/><rect width="2" height="1" transform="translate(38.958 60)" fill="#107e7d"/><path d="M264,99.2V97.6a1.6,1.6,0,0,0,1.6-1.6h1.6A3.2,3.2,0,0,1,264,99.2Z" transform="translate(-223.2 -72.001)" fill="#107e7d"/><path d="M35.6,383.2a.8.8,0,0,1-.7-.416l-.878-1.6-1.6-.877a.8.8,0,0,1,0-1.4l1.6-.878.878-1.6a.8.8,0,0,1,1.4,0l.878,1.6,1.6.878a.8.8,0,0,1,0,1.4l-1.6.877-.878,1.6A.8.8,0,0,1,35.6,383.2Zm-1.133-3.6.527.288a.8.8,0,0,1,.318.318l.288.527.288-.527a.8.8,0,0,1,.318-.318l.527-.288-.527-.288a.8.8,0,0,1-.318-.318l-.288-.527-.288.527a.8.8,0,0,1-.318.318Z" transform="translate(-14.4 -324.001)" fill="#107e7d"/><path d="M411.6,71.2a.8.8,0,0,1-.7-.416l-.878-1.6-1.6-.877a.8.8,0,0,1,0-1.4l1.6-.877.878-1.6a.8.8,0,0,1,1.4,0l.878,1.6,1.6.877a.8.8,0,0,1,0,1.4l-1.6.877-.878,1.6A.8.8,0,0,1,411.6,71.2Zm-1.133-3.6.527.288a.8.8,0,0,1,.318.318l.288.527.288-.527a.8.8,0,0,1,.318-.318l.527-.288-.527-.288a.8.8,0,0,1-.318-.318l-.288-.527-.288.527a.8.8,0,0,1-.318.318Z" transform="translate(-352.8 -43.201)" fill="#107e7d"/></g><g transform="translate(1099 1704)"><circle cx="23.5" cy="23.5" r="23.5" transform="translate(278 69)" fill="#f69c93" opacity="0.68"/><path d="M63.1,37.218,53.634,28.48A4.4,4.4,0,0,0,51.2,21.766q0-.083,0-.166V20.4a4.4,4.4,0,0,0-6.959-3.579c-.212.016-.493.044-.744.086a7.2,7.2,0,0,0-7,0c-.252-.042-.533-.07-.746-.087a4.4,4.4,0,0,0-5-.078l.89,1.33a2.8,2.8,0,0,1,3.317.153.8.8,0,0,0,.5.179,6.6,6.6,0,0,1,.951.116.8.8,0,0,0,.651-.085,5.6,5.6,0,0,1,5.879,0,.8.8,0,0,0,.651.086,6.583,6.583,0,0,1,.949-.115.8.8,0,0,0,.5-.179A2.768,2.768,0,0,1,46.8,17.6a2.8,2.8,0,0,1,2.8,2.8v1.2a1.591,1.591,0,0,1-.094.54.8.8,0,0,0,.7,1.069A2.807,2.807,0,0,1,52.8,26a2.769,2.769,0,0,1-.336,1.333l-5.5-5.5a.8.8,0,0,0-1.325.313l-.337,1.01a4.805,4.805,0,0,0,.1,3.3l.332.829a2.863,2.863,0,0,1-.321-.34.8.8,0,0,0-1.223-.031A5.606,5.606,0,0,1,40,28.8a5.549,5.549,0,0,1-2.3-.5.8.8,0,0,0-1.052.384,1.6,1.6,0,0,1-2.915-.058l.869-2.173a4.806,4.806,0,0,0,.1-3.3l-.337-1.01a.8.8,0,0,0-1.325-.313l-5.5,5.5A2.8,2.8,0,0,1,30,23.2l.1,0a.788.788,0,0,0,.531-.176l.042-.033a.8.8,0,0,0,.176-1.066,2.8,2.8,0,0,1,.017-3.083l-1.33-.89A4.4,4.4,0,0,0,29,21.714a4.4,4.4,0,0,0-2.635,6.767L16.9,37.218a2.808,2.808,0,0,0-.9,2.057v.956a2.783,2.783,0,0,0,1.785,2.61l11.85,4.608a1.193,1.193,0,0,1,.765,1.118v.953l-.167.832a5.829,5.829,0,0,0,2.207,5.777l.359.269v3.972l-.713.475A3.782,3.782,0,0,0,30.4,64H32a2.185,2.185,0,0,1,.975-1.822l1.069-.713A.8.8,0,0,0,34.4,60.8V56a.8.8,0,0,0-.32-.64L33.4,54.85a4.221,4.221,0,0,1-1.6-4.184l.113-.563.872-.523a5.176,5.176,0,0,1,5-.192l1.854.927a.8.8,0,0,0,.716,0l1.854-.927a5.175,5.175,0,0,1,5,.192l.872.523.113.563a4.221,4.221,0,0,1-1.6,4.184l-.679.509a.8.8,0,0,0-.32.64v4.8a.8.8,0,0,0,.356.666l1.069.712A2.185,2.185,0,0,1,48,64h1.6a3.782,3.782,0,0,0-1.687-3.153l-.712-.475V56.4l.359-.269a5.829,5.829,0,0,0,2.207-5.777L49.6,49.52v-.953a1.193,1.193,0,0,1,.765-1.118l3.525-1.371-.58-1.491-3.525,1.371A2.78,2.78,0,0,0,48.023,48.2a6.768,6.768,0,0,0-6.527-.244l-1.5.748-1.5-.748a6.768,6.768,0,0,0-6.527.244,2.78,2.78,0,0,0-1.762-2.243L18.365,41.35a1.193,1.193,0,0,1-.765-1.118v-.956a1.2,1.2,0,0,1,.386-.882l9.757-9.006.023-.022,5.478-5.478a3.2,3.2,0,0,1-.13,1.976L32.057,28.5a.8.8,0,0,0-.057.3v1.744l-3.357.671a.8.8,0,0,0-.441.253l-6.4,7.2a.8.8,0,0,0,.345,1.29l7.2,2.4a.8.8,0,0,0,.447.017l.34-.085a3.185,3.185,0,0,1,3.511,1.444l.07.116a.8.8,0,0,0,.418.339l1.6.565A.8.8,0,0,0,36,44.8h.8a.8.8,0,0,0,.784-.643l.567-2.835a6.323,6.323,0,0,0,3.7,0l.566,2.832a.8.8,0,0,0,.784.643H44a.8.8,0,0,0,.358-.084l1.6-.8a.8.8,0,0,0,.308-.272l.036-.054a3.208,3.208,0,0,1,3.439-1.329l.465.116a.8.8,0,0,0,.447-.017l7.2-2.4a.8.8,0,0,0,.345-1.29l-6.4-7.2a.8.8,0,0,0-.441-.253L48,30.544V28.8a.8.8,0,0,0-.057-.3l-1.056-2.64a3.2,3.2,0,0,1-.13-1.976l5.478,5.478.023.022,9.756,9.006a1.2,1.2,0,0,1,.386.882v.956a1.193,1.193,0,0,1-.765,1.118L54.91,43.965l.58,1.491,6.725-2.615A2.783,2.783,0,0,0,64,40.231v-.956A2.808,2.808,0,0,0,63.1,37.218ZM35.462,18.4h0Zm9.042,0h0Zm-8.69,19.438-1.226,1.028a8.167,8.167,0,0,0,2.066,1.785L36.144,43.2l-1.212-.425a4.776,4.776,0,0,0-5.186-2.036l-.114.029L23.8,38.824l5.416-6.093,2.814-.563a12.4,12.4,0,0,0,1.413,5.011l1.408-.76A11.015,11.015,0,0,1,33.6,31.2v-.428a3.2,3.2,0,0,0,4.082-.754,7.2,7.2,0,0,0,7.1-1.437,4.346,4.346,0,0,0,1.618.855V31.2c0,4.852-2.871,8.8-6.4,8.8A5.514,5.514,0,0,1,35.813,37.841Zm14.967-5.11L56.2,38.824l-5.828,1.943-.239-.06a4.811,4.811,0,0,0-5.072,1.87l-1.2.6-.5-2.521a8.356,8.356,0,0,0,2.384-2.191,11.9,11.9,0,0,0,2.235-6.3Z" transform="translate(243.042 65)" fill="#107e7d"/></g></g></svg>