<svg xmlns="http://www.w3.org/2000/svg" width="63" height="60" viewBox="0 0 63 60"><g transform="translate(-1002 -69)"><circle cx="23.5" cy="23.5" r="23.5" transform="translate(1018 69)" fill="#f69c93" opacity="0.68"/><g transform="translate(1002 81)"><path d="M48.226,21.129H40.484V18.806a.773.773,0,0,0-.774-.774,3.848,3.848,0,0,0-2.944,1.387,2.934,2.934,0,0,0-.6-.289l-1.588-.53a1.545,1.545,0,0,1-1.059-1.468v-.649h8.516a1.55,1.55,0,0,0,1.548-1.548V2.548A1.55,1.55,0,0,0,42.032,1H20.355a1.55,1.55,0,0,0-1.548,1.548V14.935a1.55,1.55,0,0,0,1.548,1.548h8.516v.649A1.547,1.547,0,0,1,27.812,18.6l-1.588.53a2.912,2.912,0,0,0-1.887,2h-9.4V7.968a.773.773,0,0,0-.774-.774H4.871a.773.773,0,0,0-.774.774V21.129H1.774A.773.773,0,0,0,1,21.9V48.226A.773.773,0,0,0,1.774,49h3.1a.773.773,0,0,0,.774-.774V42.806h7.742v5.419a.773.773,0,0,0,.774.774h3.1a.773.773,0,0,0,.774-.774v-20.9H35.839v5.419H25.774A3.875,3.875,0,0,0,21.9,36.613v1.548a.773.773,0,0,0,.774.774h6.194v.587a7.1,7.1,0,0,1-1.89,4.833H25.774a2.323,2.323,0,0,0,0,4.645H36.613a2.323,2.323,0,1,0,0-4.645H35.406a7.1,7.1,0,0,1-1.89-4.833v-.587h4.645a2.325,2.325,0,0,0,2.323-2.323v-9.29h3.871v20.9a.773.773,0,0,0,.774.774h3.1A.773.773,0,0,0,49,48.226V21.9A.773.773,0,0,0,48.226,21.129ZM42.032,2.548v9.29H20.355V2.548ZM20.355,13.387H42.034v1.548H20.355ZM26.714,20.6,28.3,20.07a3.093,3.093,0,0,0,2.117-2.937v-.649h1.548v.649a3.092,3.092,0,0,0,2.117,2.937l1.588.53a1.371,1.371,0,0,1,.352.178,3.634,3.634,0,0,0-.108.352h-9.9a1.369,1.369,0,0,1,.7-.531ZM13.387,16.484H5.645v-3.1h7.742Zm0-7.742v3.1H5.645v-3.1Zm-7.742,9.29h7.742v3.1H5.645ZM4.1,47.452H2.548V27.323H4.1Zm9.29-20.129v6.194H5.645V27.323ZM5.645,41.258V35.065h7.742v6.194Zm10.839,6.194H14.935V27.323h1.548Zm.774-21.677H2.548v-3.1h33.29v3.1ZM37.387,21.9a2.327,2.327,0,0,1,1.548-2.19V32.742H37.387Zm0,24.774a.774.774,0,0,1-.774.774H25.774a.774.774,0,0,1,0-1.548H36.613A.774.774,0,0,1,37.387,46.677ZM33.43,44.355H28.957a8.643,8.643,0,0,0,1.462-4.833v-.587h1.548v.587A8.643,8.643,0,0,0,33.43,44.355Zm5.505-7.742a.774.774,0,0,1-.774.774H23.452v-.774a2.325,2.325,0,0,1,2.323-2.323H38.935Zm1.548-13.935h6.968v3.1H40.484Zm6.968,24.774H45.9V27.323h1.548Z" transform="translate(-1 -1)" fill="#107e7d"/><path d="M10,37h3.1v1.548H10Z" transform="translate(-3.032 -9.129)" fill="#107e7d"/><path d="M10,47h3.1v1.548H10Z" transform="translate(-3.032 -11.387)" fill="#107e7d"/></g></g></svg>