<svg xmlns="http://www.w3.org/2000/svg" width="50" height="48" viewBox="0 0 50 48"><g transform="translate(-139 -1022)"><circle cx="23.5" cy="23.5" r="23.5" transform="translate(142 1022)" fill="#f69c93" opacity="0.68"/><path d="M34,17a1.328,1.328,0,1,1-2.656,0A14.344,14.344,0,1,0,17,31.344a14.184,14.184,0,0,0,6.563-1.586,1.328,1.328,0,0,1,1.217,2.361A17,17,0,1,1,34,17Zm-1.6,4.833a1.328,1.328,0,0,1,.037,1.878,5.609,5.609,0,0,1-9-1.263,8.429,8.429,0,1,1,2-5.448v2.822a2.955,2.955,0,0,0,5.086,2.048A1.328,1.328,0,0,1,32.4,21.833ZM22.777,17A5.777,5.777,0,1,0,17,22.777,5.784,5.784,0,0,0,22.777,17Z" transform="translate(139 1036)" fill="#107e7d"/></g></svg>