<svg xmlns="http://www.w3.org/2000/svg" width="55" height="52.612" viewBox="0 0 55 52.612"><g transform="translate(-1346 -66)"><circle cx="23.5" cy="23.5" r="23.5" transform="translate(1354 66)" fill="#f69c93" opacity="0.68"/><path d="M48.8,110.4h6.4a.8.8,0,0,0,.8-.8V108a4,4,0,0,0-8,0v1.6A.8.8,0,0,0,48.8,110.4Zm.8-2.4a2.4,2.4,0,0,1,4.8,0v.8H49.6Z" transform="translate(1301.201 -19.799)" fill="#107e7d"/><path d="M48.8,234.4a.8.8,0,0,0,.8-.8v-.8a.8.8,0,0,0-1.6,0v.8A.8.8,0,0,0,48.8,234.4Z" transform="translate(1301.201 -134.995)" fill="#107e7d"/><path d="M49.6,272.8a.8.8,0,1,0-1.6,0v2.4a.8.8,0,0,0,1.6,0Z" transform="translate(1301.201 -170.994)" fill="#107e7d"/><path d="M228,152a4,4,0,0,0-3.251,6.333.8.8,0,0,0,.812.317,12.17,12.17,0,0,1,4.878,0,.8.8,0,0,0,.812-.317A4,4,0,0,0,228,152Zm2.193,4.978a13.729,13.729,0,0,0-4.387,0,2.4,2.4,0,1,1,4.387,0Z" transform="translate(1142.81 -62.998)" fill="#107e7d"/><path d="M311.456,249a10.491,10.491,0,0,0-1.128-.867.8.8,0,1,0-.886,1.333,8.9,8.9,0,0,1,.955.734.8.8,0,0,0,1.059-1.2Z" transform="translate(1066.233 -149.392)" fill="#107e7d"/><path d="M61.614,97.608h-.8a2.4,2.4,0,0,0-3.286-2.231,2.4,2.4,0,0,0-3.2-1.6,2.411,2.411,0,0,0-1.425-1.6,13.734,13.734,0,0,0-5.37-5.6,7.2,7.2,0,1,0-13.45,0A13.577,13.577,0,0,0,30.4,89.642V86.8a1.987,1.987,0,0,0-.4-1.2,1.988,1.988,0,0,0,.4-1.2V79.2a7.2,7.2,0,0,0-14.4,0v5.2a1.988,1.988,0,0,0,.4,1.2,1.988,1.988,0,0,0-.4,1.2v20.406a2.4,2.4,0,0,0,2.4,2.4H28a2.4,2.4,0,0,0,2.3-1.7c.064-.02.126-.042.188-.066a2.4,2.4,0,0,0,2.316,1.77H48.273a.8.8,0,0,0,.467-.15,13.683,13.683,0,0,0,1.225-.995,2.4,2.4,0,0,0,4.361-.625,2.4,2.4,0,0,0,3.2-1.6,2.4,2.4,0,0,0,3.286-2.231h.8a2.4,2.4,0,0,0,2.4-2.4v-1.6A2.4,2.4,0,0,0,61.614,97.608ZM17.6,79.2a5.6,5.6,0,0,1,11.2,0v5.2a.4.4,0,0,1-.4.4H18a.4.4,0,0,1-.4-.4ZM28,108.011H18.4a.8.8,0,0,1-.8-.8V86.8a.4.4,0,0,1,.4-.4H28.4a.4.4,0,0,1,.4.4v6.94a2.411,2.411,0,0,0-1.516,1.633A2.4,2.4,0,0,0,24,97.608h-.8a2.4,2.4,0,0,0-2.4,2.4v1.6a2.4,2.4,0,0,0,2.4,2.4H24a2.4,2.4,0,0,0,3.286,2.231,2.412,2.412,0,0,0,1.281,1.535A.8.8,0,0,1,28,108.011Zm-.8-10.4v6.4a.8.8,0,0,1-1.6,0v-6.4a.8.8,0,0,1,1.6,0Zm-3.2,1.6v3.2h-.8a.8.8,0,0,1-.8-.8v-1.6a.8.8,0,0,1,.8-.8Zm6.4,6.4a.8.8,0,1,1-1.6,0v-9.6a.8.8,0,1,1,1.6,0Zm3.2,1.6a.8.8,0,1,1-1.6,0v-12.8a.8.8,0,1,1,1.6,0Zm16-.644a12.113,12.113,0,0,1-1.6,1.444H35.068a2.39,2.39,0,0,0,.138-.8v-3.2h14.4Zm0-4.158h-14.4v-3.2h14.4Zm.266-9.1c-.02-.035-.038-.07-.058-.1a.8.8,0,1,0-1.385.8,8.72,8.72,0,0,1,1.055,2.933.8.8,0,0,0,.122.308v.36h-14.4v-3.2a2.4,2.4,0,0,0-4.717-.63l-.085-.032V92.418a12,12,0,0,1,5.069-4.765.8.8,0,0,0,.355-1.084A5.539,5.539,0,0,1,35.206,84a5.6,5.6,0,1,1,11.2,0,5.539,5.539,0,0,1-.622,2.565.8.8,0,0,0,.355,1.084,12.122,12.122,0,0,1,4.937,4.541A2.416,2.416,0,0,0,49.876,93.311Zm2.935,13.9a.8.8,0,1,1-1.6,0v-12.8a.8.8,0,1,1,1.6,0Zm3.2-1.6a.8.8,0,1,1-1.6,0v-9.6a.8.8,0,1,1,1.6,0Zm3.2-1.6a.8.8,0,0,1-1.6,0v-6.4a.8.8,0,0,1,1.6,0Zm3.2-2.4a.8.8,0,0,1-.8.8h-.8v-3.2h.8a.8.8,0,0,1,.8.8Z" transform="translate(1330 9)" fill="#107e7d"/></g></svg>