<svg xmlns="http://www.w3.org/2000/svg" width="59" height="60.17" viewBox="0 0 59 60.17"><g transform="translate(-1346 -68)"><circle cx="23.5" cy="23.5" r="23.5" transform="translate(1358 68)" fill="#f69c93" opacity="0.68"/><g transform="translate(1346 83.672)"><path d="M48.947,111.574h7.574a.947.947,0,0,0,.947-.947v-1.894a4.734,4.734,0,0,0-9.468,0v1.894A.947.947,0,0,0,48.947,111.574Zm.947-2.84a2.84,2.84,0,1,1,5.681,0v.947H49.894Z" transform="translate(-44.212 -100.213)" fill="#107e7d"/><path d="M48.947,234.84a.947.947,0,0,0,.947-.947v-.947a.947.947,0,0,0-1.894,0v.947A.947.947,0,0,0,48.947,234.84Z" transform="translate(-44.212 -213.065)" fill="#107e7d"/><path d="M49.894,272.947a.947.947,0,1,0-1.894,0v2.84a.947.947,0,0,0,1.894,0Z" transform="translate(-44.212 -248.331)" fill="#107e7d"/><path d="M228.73,152a4.733,4.733,0,0,0-3.846,7.493.947.947,0,0,0,.96.375,14.4,14.4,0,0,1,5.771,0,.946.946,0,0,0,.96-.375A4.733,4.733,0,0,0,228.73,152Zm2.6,5.889a16.242,16.242,0,0,0-5.19,0,2.84,2.84,0,1,1,5.19,0Z" transform="translate(-199.381 -142.533)" fill="#107e7d"/><path d="M311.89,249.181a12.4,12.4,0,0,0-1.335-1.025.947.947,0,1,0-1.049,1.577,10.525,10.525,0,0,1,1.13.869.947.947,0,0,0,1.253-1.42Z" transform="translate(-274.399 -227.168)" fill="#107e7d"/><path d="M69.966,102.3h-.947a2.839,2.839,0,0,0-3.887-2.639,2.838,2.838,0,0,0-3.787-1.894,2.852,2.852,0,0,0-1.686-1.891,16.249,16.249,0,0,0-6.353-6.622,8.521,8.521,0,1,0-15.912,0,16.063,16.063,0,0,0-4.352,3.622V89.515a2.351,2.351,0,0,0-.478-1.42,2.351,2.351,0,0,0,.478-1.42V80.521a8.521,8.521,0,0,0-17.042,0v6.154a2.351,2.351,0,0,0,.478,1.42A2.351,2.351,0,0,0,16,89.515v24.143a2.844,2.844,0,0,0,2.84,2.84H30.2a2.845,2.845,0,0,0,2.718-2.016c.076-.023.15-.049.222-.078a2.845,2.845,0,0,0,2.74,2.094h18.3a.947.947,0,0,0,.553-.178,16.188,16.188,0,0,0,1.45-1.177,2.839,2.839,0,0,0,5.16-.74,2.838,2.838,0,0,0,3.787-1.894,2.839,2.839,0,0,0,3.887-2.64h.947a2.844,2.844,0,0,0,2.84-2.84v-1.894A2.844,2.844,0,0,0,69.966,102.3ZM17.894,80.521a6.627,6.627,0,0,1,13.255,0v6.154a.473.473,0,0,1-.473.473H18.367a.473.473,0,0,1-.473-.473ZM30.2,114.6H18.84a.948.948,0,0,1-.947-.947V89.515a.473.473,0,0,1,.473-.473H30.675a.473.473,0,0,1,.473.473v8.21a2.852,2.852,0,0,0-1.793,1.932,2.839,2.839,0,0,0-3.887,2.639h-.947a2.844,2.844,0,0,0-2.84,2.84v1.894a2.844,2.844,0,0,0,2.84,2.84h.947a2.839,2.839,0,0,0,3.887,2.639,2.853,2.853,0,0,0,1.516,1.817A.944.944,0,0,1,30.2,114.6ZM29.255,102.3v7.574a.947.947,0,0,1-1.894,0V102.3a.947.947,0,0,1,1.894,0Zm-3.787,1.894v3.787h-.947a.948.948,0,0,1-.947-.947v-1.894a.948.948,0,0,1,.947-.947Zm7.574,7.574a.947.947,0,1,1-1.894,0V100.4a.947.947,0,0,1,1.894,0Zm3.787,1.894a.947.947,0,1,1-1.894,0V98.509a.947.947,0,0,1,1.894,0Zm18.935-.761a14.331,14.331,0,0,1-1.892,1.708H38.56a2.828,2.828,0,0,0,.163-.947v-3.787H55.764Zm0-4.919H38.722V104.19H55.764Zm.315-10.764c-.024-.041-.044-.083-.068-.124a.947.947,0,1,0-1.639.948,10.317,10.317,0,0,1,1.249,3.47.942.942,0,0,0,.144.364v.426H38.722V98.509a2.84,2.84,0,0,0-5.58-.746l-.1-.038v-1.57a14.2,14.2,0,0,1,6-5.637.947.947,0,0,0,.42-1.282,6.553,6.553,0,0,1-.736-3.035,6.627,6.627,0,1,1,13.255,0,6.553,6.553,0,0,1-.736,3.035.947.947,0,0,0,.42,1.282A14.342,14.342,0,0,1,57.5,95.892,2.858,2.858,0,0,0,56.079,97.213Zm3.472,16.445a.947.947,0,1,1-1.894,0V98.509a.947.947,0,1,1,1.894,0Zm3.787-1.894a.947.947,0,1,1-1.894,0V100.4a.947.947,0,0,1,1.894,0Zm3.787-1.894a.947.947,0,0,1-1.894,0V102.3a.947.947,0,0,1,1.894,0Zm3.787-2.84a.948.948,0,0,1-.947.947h-.947V104.19h.947a.948.948,0,0,1,.947.947Z" transform="translate(-16 -72)" fill="#107e7d"/></g></g></svg>