<svg xmlns="http://www.w3.org/2000/svg" width="63.187" height="59.612" viewBox="0 0 63.187 59.612"><g transform="translate(-1191.813 -1460)"><circle cx="23.5" cy="23.5" r="23.5" transform="translate(1208 1460)" fill="#f69c93" opacity="0.68"/><g transform="translate(1175.806 1457)"><path d="M327.631,211.382l1.079-.8-.925-1.248-.873.647h-3.8v1.554h4.057a.777.777,0,0,0,.463-.153Z" transform="translate(-277.282 -174.56)" fill="#107e7d"/><path d="M388.868,169.388a.777.777,0,0,0,.278-.388l.942-2.96-1.481-.471-.866,2.721-.508.377.925,1.248Z" transform="translate(-335.176 -135.045)" fill="#107e7d"/><path d="M0,0H1.554V1.631H0Z" transform="translate(52.69 26.352) rotate(-17.638)" fill="#107e7d"/><path d="M344,238.346V239.9h3.055a.777.777,0,0,0,.463-.153l1.606-1.191-.925-1.248-1.4,1.038Z" transform="translate(-296.142 -199.817)" fill="#107e7d"/><path d="M406.613,142.97l-1.767,5.549-1.611,1.194.925,1.248,1.813-1.344a.777.777,0,0,0,.278-.388l1.918-6.024a.778.778,0,0,0,0-.471l-.371-1.165-1.48.471Z" transform="translate(-349.625 -113.375)" fill="#107e7d"/><path d="M405.418,78.318l1.481-.471-.8-2.528a.777.777,0,0,0-.278-.388l-1.83-1.357-.925,1.248,1.628,1.207Z" transform="translate(-349.468 -51.983)" fill="#107e7d"/><path d="M368,144h1.554v1.554H368Z" transform="translate(-317.811 -115.57)" fill="#107e7d"/><path d="M328,56h1.554v1.554H328Z" transform="translate(-281.696 -36.116)" fill="#107e7d"/><path d="M256,104h1.554v1.554H256Z" transform="translate(-216.687 -79.454)" fill="#107e7d"/><path d="M288,216h1.554v1.554H288Z" transform="translate(-245.58 -180.578)" fill="#107e7d"/><path d="M62.237,36.306a.777.777,0,0,0-.77-.011l-2.085,1.151,2.424-7.615a.778.778,0,0,0,0-.471l-2.522-7.922a.776.776,0,0,0-.278-.388l-6.6-4.9A.777.777,0,0,0,51.94,16H43.777a.777.777,0,0,0-.463.153l-6.6,4.9a.776.776,0,0,0-.278.388L35.522,24.3l-.79-1.01a.777.777,0,0,0-1.09-.134l-2.6,2.03-4.574,3.585a10.119,10.119,0,0,0-3.582,10.34l1.572,6.448a.777.777,0,0,0,1.2.455l6.5-4.5,4.326.076A1.561,1.561,0,0,1,38,42.971l.445,3.837a.777.777,0,0,0,.9.676l1.518-.263v.44L36.84,49.882,36.2,44.65a.777.777,0,0,0-.771-.682H32.321a.776.776,0,0,0-.431.131l-2.33,1.554a.777.777,0,0,0-.346.646v3.5a1.561,1.561,0,0,1-.621,1.243l-2.175,1.631a.777.777,0,0,0-.311.621V55.8l-.413.228-1.3-2.944,2.342-3.227a.777.777,0,0,0,.13-.624l-.343-1.554L25,48.019l.268,1.212-2.4,3.305a.777.777,0,0,0-.082.77l1.536,3.478-7.919,4.37a.777.777,0,0,0,.375,1.457H61.842a.777.777,0,0,0,.777-.777V36.975a.777.777,0,0,0-.382-.669Zm-24.208-3.45L39.4,31.783l1.073,1.372L39.1,34.228l-.537-.686Zm-4.117-3.025,0,.008a3.492,3.492,0,0,0-.608-.262l.715-.559-.109.343a.778.778,0,0,0,0,.471Zm-1.346,5.326a1.97,1.97,0,1,1-2.427-3.1L31,31.376a1.97,1.97,0,0,1,2.427,3.1l-.8.624Zm1.422-10.3,1.073,1.372L33.687,27.3l-.537-.686-.537-.686ZM24.4,38.744A8.563,8.563,0,0,1,27.429,30l3.961-3.105L32.261,28l.2.259-5.446,4.259a.777.777,0,0,0-.133,1.091l3.384,4.327a.777.777,0,0,0,1.091.133L36.8,33.813l.537.686.537.686L32.45,39.43,25.7,44.1ZM42.143,45.7a.777.777,0,0,0-.633-.171l-1.618.28-.35-3.021a3.122,3.122,0,0,0-3.028-2.748L34.239,40l5.207-4.072,2.6-2.03a.777.777,0,0,0,.133-1.091l-2.03-2.6a.777.777,0,0,0-1.091-.133l-2.6,2.03-.154.12L35.467,29.6l.724-2.276.438-.343a.777.777,0,0,0,.133-1.091l-.081-.1,1.156-3.634,6.2-4.594h7.65l6.2,4.594L60.249,29.6l-2.37,7.447-6.2,4.594h-7.65L39,37.9l-.925,1.248,5.241,3.886a.777.777,0,0,0,.463.153h5.192L42.42,46.8V46.3a.777.777,0,0,0-.277-.594ZM27.66,53.678l1.864-1.4a3.122,3.122,0,0,0,1.243-2.486v-3.08l1.789-1.193h2.185l.633,5.17L27.66,54.947Zm33.405,7.38H19.8L61.065,38.291Z" transform="translate(0 0)" fill="#107e7d"/><path d="M0,0H4.769V1.554H0Z" transform="translate(43.608 50.297) rotate(-28.871)" fill="#107e7d"/><path d="M0,0H1.775V1.554H0Z" transform="translate(49.048 47.296) rotate(-28.871)" fill="#107e7d"/><path d="M0,0H6.489V1.554H0Z" transform="translate(38.948 58.048) rotate(-28.615)" fill="#107e7d"/><path d="M0,0H4.867V1.554H0Z" transform="translate(52.933 50.277) rotate(-28.615)" fill="#107e7d"/><path d="M0,0H9.734V1.554H0Z" transform="translate(48.272 58.824) rotate(-28.615)" fill="#107e7d"/><path d="M0,0H1.77V1.554H0Z" transform="translate(35.065 55.008) rotate(-28.615)" fill="#107e7d"/><path d="M0,0H1.77V1.554H0Z" transform="translate(56.817 44.057) rotate(-28.615)" fill="#107e7d"/><path d="M0,0H1.77V1.554H0Z" transform="translate(29.626 58.118) rotate(-28.615)" fill="#107e7d"/></g></g></svg>