<svg xmlns="http://www.w3.org/2000/svg" width="122" height="119.143" viewBox="0 0 122 119.143"><g transform="translate(-913 -3658.24)"><circle cx="39.5" cy="39.5" r="39.5" transform="translate(956 3658.24)" fill="#f69c93" opacity="0.68"/><g transform="translate(913 3685.587)"><path d="M338.313,17.667V14.4a23.577,23.577,0,0,0-3.511.263l.49,3.231a20.3,20.3,0,0,1,3.022-.227Z" transform="translate(-269.695 -14.4)" fill="#107e7d"/><path d="M74.021,23.5a19.915,19.915,0,0,1,28.164,0l4.364,4.364a1.633,1.633,0,0,0,2.31,0l4.364-4.364a19.682,19.682,0,0,1,8.042-4.906l-.987-3.114a23.237,23.237,0,0,0-9.365,5.711L107.7,24.4,104.5,21.192a23.181,23.181,0,0,0-32.784,0,23.59,23.59,0,0,0-2.054,2.345l2.6,1.984A20.3,20.3,0,0,1,74.021,23.5Z" transform="translate(-58.687 -14.402)" fill="#107e7d"/><rect width="3.267" height="3.267" transform="translate(35.942 80.363)" fill="#107e7d"/><rect width="3.267" height="3.267" transform="translate(58.826 80.363)" fill="#107e7d"/><path d="M111.188,101.756a9.483,9.483,0,0,0,0-13.4L96.642,73.814a16.645,16.645,0,1,0-23.873-23.2l-7.827,7.83-7.829-7.829a16.645,16.645,0,1,0-23.873,23.2L18.694,88.36a9.483,9.483,0,0,0,0,13.4L29,112.06v.973H27.365a1.633,1.633,0,0,0-1.633,1.633V131H29V116.3H58.4V131h3.267V114.667a1.633,1.633,0,0,0-1.633-1.633H58.4V106.5a9.816,9.816,0,0,0-8.167-9.664V90.823l5.091,5.091a13.618,13.618,0,0,0,19.236,0l5.091-5.091v6.014a9.816,9.816,0,0,0-8.167,9.664v6.534H69.85a1.633,1.633,0,0,0-1.633,1.633V131h3.267V116.3h29.4V131h3.267V114.667a1.633,1.633,0,0,0-1.633-1.633h-1.633v-.973ZM55.133,106.5v6.534H32.265v-1.65a1.633,1.633,0,0,0-.478-1.155L21,99.446a6.212,6.212,0,0,1,0-8.775L35.541,76.132l2.522,2.522A6.5,6.5,0,0,0,37.141,82v4.881L30.8,93.227l2.31,2.31L37.141,91.5v6.833h3.267V82a3.284,3.284,0,0,1,3.271-3.279h.009A3.279,3.279,0,0,1,46.966,82V98.333A1.633,1.633,0,0,0,48.6,99.967,6.541,6.541,0,0,1,55.133,106.5ZM72.249,93.6a10.347,10.347,0,0,1-14.616,0l-7.4-7.4V82a6.546,6.546,0,0,0-6.545-6.546h-.017a6.5,6.5,0,0,0-3.287.9l-4.5-4.5A13.381,13.381,0,1,1,54.8,52.925l8.983,8.984a1.633,1.633,0,0,0,2.31,0l8.984-8.984A13.381,13.381,0,1,1,94,71.849l-4.5,4.5a6.5,6.5,0,0,0-3.287-.9H86.2A6.546,6.546,0,0,0,79.65,82v4.2Zm2.5,19.431V106.5a6.541,6.541,0,0,1,6.534-6.534,1.633,1.633,0,0,0,1.633-1.633V82A3.279,3.279,0,0,1,86.2,78.721H86.2A3.284,3.284,0,0,1,89.474,82V98.333h3.267V91.5l4.036,4.037,2.31-2.31-6.346-6.346V82a6.5,6.5,0,0,0-.923-3.345l2.522-2.522,14.539,14.538a6.212,6.212,0,0,1,0,8.775L98.1,110.229a1.633,1.633,0,0,0-.478,1.155v1.65Z" transform="translate(-15.924 -39.205)" fill="#107e7d"/></g></g></svg>