<svg xmlns="http://www.w3.org/2000/svg" width="122" height="119.143" viewBox="0 0 122 119.143"><g transform="translate(-913 -4178)"><circle cx="39.5" cy="39.5" r="39.5" transform="translate(956 4178)" fill="#f69c93" opacity="0.68"/><g transform="translate(913 4205.912)"><g transform="translate(13.345 49.972)"><path d="M91.247,280.547a1.336,1.336,0,0,0-1.741.736,3.637,3.637,0,0,1-6.738,0,1.336,1.336,0,0,0-2.479,1,6.311,6.311,0,0,0,11.694,0A1.337,1.337,0,0,0,91.247,280.547Z" transform="translate(-80.192 -280.448)" fill="#107e7d"/></g><g transform="translate(11.806 42.723)"><path d="M72.893,239.767a1.336,1.336,0,0,0-1.336,1.336v.593a1.336,1.336,0,0,0,2.673,0V241.1A1.336,1.336,0,0,0,72.893,239.767Z" transform="translate(-71.557 -239.767)" fill="#107e7d"/></g><g transform="translate(24.101 42.723)"><g transform="translate(0)"><path d="M141.889,239.767a1.336,1.336,0,0,0-1.336,1.336v.593a1.336,1.336,0,0,0,2.673,0V241.1A1.336,1.336,0,0,0,141.889,239.767Z" transform="translate(-140.553 -239.767)" fill="#107e7d"/></g></g><g transform="translate(39.789 39.727)"><g transform="translate(0)"><path d="M243.188,223.048a1.336,1.336,0,0,0-1.741.736,5.546,5.546,0,0,1-10.275,0,1.336,1.336,0,0,0-2.478,1,8.22,8.22,0,0,0,15.23,0A1.336,1.336,0,0,0,243.188,223.048Z" transform="translate(-228.596 -222.95)" fill="#107e7d"/></g></g><g transform="translate(37.66 29.696)"><path d="M217.984,166.656a1.336,1.336,0,0,0-1.336,1.336v.821a1.336,1.336,0,1,0,2.673,0v-.821A1.336,1.336,0,0,0,217.984,166.656Z" transform="translate(-216.648 -166.656)" fill="#107e7d"/></g><g transform="translate(54.671 29.696)"><path d="M313.456,166.656a1.336,1.336,0,0,0-1.336,1.336v.821a1.336,1.336,0,1,0,2.673,0v-.821A1.336,1.336,0,0,0,313.456,166.656Z" transform="translate(-312.12 -166.656)" fill="#107e7d"/></g><g transform="translate(0)"><g transform="translate(0)"><path d="M88.159,60.878a1.336,1.336,0,0,0-1.655,2.1,14.257,14.257,0,1,1-4.5-2.392,1.336,1.336,0,1,0,.814-2.546,17,17,0,0,0-15.29,2.54,15.049,15.049,0,0,0-5.958-1.214h-1.06V56.309A18.352,18.352,0,0,0,70.992,41.9h2.683a5.31,5.31,0,0,0,5.3-5.3V34.721a5.309,5.309,0,0,0-2.945-4.749V14.046a9.191,9.191,0,0,0-9.18-9.18H64.5A9.151,9.151,0,0,0,56.448,0H45.336a15.722,15.722,0,0,0-8.462,2.46,1.336,1.336,0,0,0,1.436,2.254,13.053,13.053,0,0,1,7.026-2.041H56.448a6.459,6.459,0,0,1,5.778,3.618l.242.5a1.336,1.336,0,0,0,1.2.751h3.184a6.515,6.515,0,0,1,6.507,6.507v15.37H71.127V23.074A16.454,16.454,0,0,0,65.72,10.892a2.053,2.053,0,0,0-3.4,1.17A12.4,12.4,0,0,1,50.073,22.323H33.647a1.336,1.336,0,0,0,0,2.673h.825v4.421H32.238V15.771a12.987,12.987,0,0,1,2.546-7.76,1.336,1.336,0,1,0-2.151-1.586,15.641,15.641,0,0,0-3.067,9.346v14.2a5.309,5.309,0,0,0-2.945,4.748V36.6c0,.018,0,.036,0,.055H26.4a1.2,1.2,0,0,1-.733-.251l-4.344-3.38a2.279,2.279,0,0,0-3.477.872l-.915,2.052a1.2,1.2,0,0,1-1.091.708h-2.2V30.29a2.006,2.006,0,0,1,2-2h3.658a1.336,1.336,0,0,0,1.336-1.336V25.735a.937.937,0,0,1,.935-.935h4.232a1.336,1.336,0,1,0,0-2.673H21.579a3.613,3.613,0,0,0-3.606,3.487H15.649a4.682,4.682,0,0,0-4.677,4.676V42.52H9.5a4.209,4.209,0,0,0-4.2,4.205v1.356a4.209,4.209,0,0,0,4.2,4.205h1.614a13.607,13.607,0,0,0,7.529,10.276v1.6h-.4A11.347,11.347,0,0,0,6.971,74.212L5.694,85.252a1.778,1.778,0,0,0,1.768,1.982H23.509a1.336,1.336,0,0,0,0-2.673H14.973V77.124a1.336,1.336,0,1,0-2.673,0v7.437H8.464L9.626,74.519a8.675,8.675,0,0,1,8.622-7.681h.478a5.944,5.944,0,0,0,11.724,0h.486a15.147,15.147,0,0,0-2,5.976l-1.768,15.28A1.949,1.949,0,0,0,29.1,90.262H71.985A17,17,0,0,0,88.159,60.878ZM29.293,34.721a2.635,2.635,0,0,1,2.632-2.632h3.884a1.336,1.336,0,0,0,1.336-1.336V25H50.073A15.075,15.075,0,0,0,64.71,13.642a13.78,13.78,0,0,1,3.744,9.431v7.679a1.336,1.336,0,0,0,1.336,1.336h3.884a2.635,2.635,0,0,1,2.632,2.632V36.6a2.635,2.635,0,0,1-2.632,2.632H69.767A1.336,1.336,0,0,0,68.432,40.5,15.666,15.666,0,0,1,58.678,54.19l-.048.021A15.72,15.72,0,0,1,46.956,54.2l-.066-.026A15.635,15.635,0,0,1,37.168,40.5a1.336,1.336,0,0,0-1.335-1.268H31.925A2.635,2.635,0,0,1,29.293,36.6ZM57.84,57.3v5.617a5.04,5.04,0,1,1-10.08,0V57.3a18.453,18.453,0,0,0,10.08,0ZM27.86,65.858a3.271,3.271,0,0,1-6.543,0V63.526a13.66,13.66,0,0,0,6.543,0Zm3.068-1.693h-.4V62.558a13.63,13.63,0,0,0,6.882-7.679,1.336,1.336,0,1,0-2.518-.9,10.971,10.971,0,0,1-6.218,6.479l-.007,0a10.983,10.983,0,0,1-8.166,0l-.043-.016a10.932,10.932,0,0,1-6.8-9.567,1.337,1.337,0,0,0-1.335-1.267H9.5a1.533,1.533,0,0,1-1.531-1.532V46.726A1.533,1.533,0,0,1,9.5,45.193h2.806a1.336,1.336,0,0,0,1.336-1.336V39.326h2.2a3.873,3.873,0,0,0,3.531-2.29l.711-1.593,3.944,3.068a3.883,3.883,0,0,0,2.375.815h.977A5.306,5.306,0,0,0,31.925,41.9h2.682a18.309,18.309,0,0,0,10.48,14.407v3.055h-1.06A15.17,15.17,0,0,0,32.8,64.321,11.417,11.417,0,0,0,30.928,64.165Zm8.055,23.424v-10.8a1.336,1.336,0,1,0-2.673,0v10.8h-6.4L31.588,73.12A12.518,12.518,0,0,1,44.027,62.037h1.06v.882a7.713,7.713,0,1,0,15.426,0v-.882h1.06a12.459,12.459,0,0,1,3.7.554,16.974,16.974,0,0,0,1.871,25H38.983Z" transform="translate(-5.298)" fill="#107e7d"/></g></g><g transform="translate(60.944 62.833)"><path d="M368.216,360.036h-5.5v-5.5a1.912,1.912,0,0,0-1.91-1.91h-4.158a1.912,1.912,0,0,0-1.91,1.91v5.5h-5.5a1.912,1.912,0,0,0-1.91,1.91V366.1a1.912,1.912,0,0,0,1.91,1.91h5.5v5.5a1.912,1.912,0,0,0,1.91,1.91H360.8a1.912,1.912,0,0,0,1.91-1.91v-5.5h5.5a1.912,1.912,0,0,0,1.91-1.91v-4.158A1.912,1.912,0,0,0,368.216,360.036Zm-.763,5.3h-5.5a1.912,1.912,0,0,0-1.91,1.91v5.5h-2.632v-5.5a1.912,1.912,0,0,0-1.91-1.91H350v-2.632h5.5a1.912,1.912,0,0,0,1.91-1.91v-5.5h2.632v5.5a1.912,1.912,0,0,0,1.91,1.91h5.5Z" transform="translate(-347.325 -352.625)" fill="#107e7d"/></g></g></g></svg>