<svg xmlns="http://www.w3.org/2000/svg" width="61" height="59.612" viewBox="0 0 61 59.612"><g transform="translate(-386 -1747)"><circle cx="23.5" cy="23.5" r="23.5" transform="translate(400 1747)" fill="#f69c93" opacity="0.68"/><g transform="translate(385.999 1760.001)"><path d="M43.784,11.75,23.248.23a1.832,1.832,0,0,0-1.782,0L.931,11.75a1.821,1.821,0,0,0,0,3.176l5.312,2.98V27.95a1.818,1.818,0,0,0,.8,1.51l1.086.731a3.435,3.435,0,0,0-.459,1.72V45.7a.91.91,0,0,0,.91.91h5.1a.91.91,0,0,0,.91-.91V34.54l6.748,4.543a1.813,1.813,0,0,0,2.033,0L37.668,29.46a1.819,1.819,0,0,0,.8-1.51V17.906l5.312-2.98a1.821,1.821,0,0,0,0-3.176ZM8.064,18.928l2.159,1.211v8.435a3.451,3.451,0,0,0-.767.313L8.064,27.95Zm4.708,13.9v1.484H9.494v-2.4a1.639,1.639,0,1,1,3.278,0ZM9.494,44.79V36.129h3.278V44.79ZM36.651,27.95,23.268,36.96V33.185a.91.91,0,1,0-1.821,0V36.96l-6.855-4.615v-.434a3.465,3.465,0,0,0-2.549-3.337V21.16l9.423,5.286a1.832,1.832,0,0,0,1.782,0l13.4-7.519Zm.559-11.424a.9.9,0,0,0-.176.1L22.357,24.858l-9.329-5.233L20,15.7a4.025,4.025,0,0,0,2.347.731,3.406,3.406,0,0,0,3.642-3.1,3.406,3.406,0,0,0-3.642-3.1,3.406,3.406,0,0,0-3.642,3.1,2.665,2.665,0,0,0,.162.913l-7.7,4.33L7.681,16.625a.9.9,0,0,0-.177-.1L1.822,13.338,22.357,1.818l20.536,11.52ZM20.526,13.338c0-.691.834-1.275,1.821-1.275s1.821.584,1.821,1.275-.834,1.275-1.821,1.275S20.526,14.029,20.526,13.338Zm0,0" transform="translate(0 0)" fill="#107e7d"/><path d="M236.48,314.535a.909.909,0,1,0,.644.266A.916.916,0,0,0,236.48,314.535Zm0,0" transform="translate(-214.123 -285.901)" fill="#107e7d"/></g></g></svg>