<svg xmlns="http://www.w3.org/2000/svg" width="59" height="59.723" viewBox="0 0 59 59.723"><g transform="translate(-851 -1779)"><circle cx="23.5" cy="23.5" r="23.5" transform="translate(863 1779)" fill="#f69c93" opacity="0.68"/><g transform="translate(819 1784)"><path d="M203.014,217.043a.754.754,0,0,0,.754-.754v-7.536a.754.754,0,0,0-.754-.754h-2.261a.754.754,0,0,0-.754.754v7.536a.754.754,0,0,0,.754.754Zm-1.507-7.536h.754v6.029h-.754Z" transform="translate(-152.174 -181.16)" fill="#107e7d"/><path d="M216.29,448a.754.754,0,0,0-.754.754v.754h-6.029v-.754a.754.754,0,0,0-1.507,0v1.507a.754.754,0,0,0,.754.754h7.536a.754.754,0,0,0,.754-.754v-1.507A.754.754,0,0,0,216.29,448Z" transform="translate(-159.421 -398.552)" fill="#107e7d"/><path d="M216.29,408a.754.754,0,0,0-.754.754v.754h-6.029v-.754a.754.754,0,0,0-1.507,0v1.507a.754.754,0,0,0,.754.754h7.536a.754.754,0,0,0,.754-.754v-1.507A.754.754,0,0,0,216.29,408Z" transform="translate(-159.421 -362.32)" fill="#107e7d"/><path d="M216.29,72a.754.754,0,0,0-.754.754v.754h-6.029v-.754a.754.754,0,1,0-1.507,0v1.507a.754.754,0,0,0,.754.754h7.536a.754.754,0,0,0,.754-.754V72.754A.754.754,0,0,0,216.29,72Z" transform="translate(-159.421 -57.971)" fill="#107e7d"/><path d="M216.29,32a.754.754,0,0,0-.754.754v.754h-6.029v-.754a.754.754,0,0,0-1.507,0v1.507a.754.754,0,0,0,.754.754h7.536a.754.754,0,0,0,.754-.754V32.754A.754.754,0,0,0,216.29,32Z" transform="translate(-159.421 -21.739)" fill="#107e7d"/><path d="M59.014,217.043a.754.754,0,0,0,.754-.754v-7.536a.754.754,0,0,0-.754-.754H56.754a.754.754,0,0,0-.754.754v7.536a.754.754,0,0,0,.754.754Zm-1.507-7.536h.754v6.029h-.754Z" transform="translate(-21.739 -181.16)" fill="#107e7d"/><path d="M360.29,448a.754.754,0,0,0-.754.754v.754h-6.029v-.754a.754.754,0,1,0-1.507,0v1.507a.754.754,0,0,0,.754.754h7.536a.754.754,0,0,0,.754-.754v-1.507A.754.754,0,0,0,360.29,448Z" transform="translate(-289.856 -398.552)" fill="#107e7d"/><path d="M360.29,408a.754.754,0,0,0-.754.754v.754h-6.029v-.754a.754.754,0,1,0-1.507,0v1.507a.754.754,0,0,0,.754.754h7.536a.754.754,0,0,0,.754-.754v-1.507A.754.754,0,0,0,360.29,408Z" transform="translate(-289.856 -362.32)" fill="#107e7d"/><path d="M352.754,75.014h7.536a.754.754,0,0,0,.754-.754V72.754a.754.754,0,0,0-1.507,0v.754h-6.029v-.754a.754.754,0,1,0-1.507,0v1.507A.754.754,0,0,0,352.754,75.014Z" transform="translate(-289.856 -57.971)" fill="#107e7d"/><path d="M352.754,35.014h7.536a.754.754,0,0,0,.754-.754V32.754a.754.754,0,0,0-1.507,0v.754h-6.029v-.754a.754.754,0,1,0-1.507,0v1.507A.754.754,0,0,0,352.754,35.014Z" transform="translate(-289.856 -21.739)" fill="#107e7d"/><path d="M73.448,8H32.754A.754.754,0,0,0,32,8.754V53.97a.754.754,0,0,0,.754.754H73.448a.754.754,0,0,0,.754-.754V8.754A.754.754,0,0,0,73.448,8ZM45.565,53.216H33.507V9.507H45.565Zm13.565,0H47.072V9.507H59.13Zm13.565,0H60.637V9.507H72.695Z" fill="#107e7d"/><path d="M344.754,217.043h2.261a.754.754,0,0,0,.754-.754v-7.536a.754.754,0,0,0-.754-.754h-2.261a.754.754,0,0,0-.754.754v7.536A.754.754,0,0,0,344.754,217.043Zm.754-7.536h.754v6.029h-.754Z" transform="translate(-282.609 -181.16)" fill="#107e7d"/><path d="M72.29,448a.754.754,0,0,0-.754.754v.754H65.507v-.754a.754.754,0,0,0-1.507,0v1.507a.754.754,0,0,0,.754.754H72.29a.754.754,0,0,0,.754-.754v-1.507A.754.754,0,0,0,72.29,448Z" transform="translate(-28.986 -398.552)" fill="#107e7d"/><path d="M72.29,408a.754.754,0,0,0-.754.754v.754H65.507v-.754a.754.754,0,0,0-1.507,0v1.507a.754.754,0,0,0,.754.754H72.29a.754.754,0,0,0,.754-.754v-1.507A.754.754,0,0,0,72.29,408Z" transform="translate(-28.986 -362.32)" fill="#107e7d"/><path d="M72.29,72a.754.754,0,0,0-.754.754v.754H65.507v-.754a.754.754,0,1,0-1.507,0v1.507a.754.754,0,0,0,.754.754H72.29a.754.754,0,0,0,.754-.754V72.754A.754.754,0,0,0,72.29,72Z" transform="translate(-28.986 -57.971)" fill="#107e7d"/><path d="M72.29,32a.754.754,0,0,0-.754.754v.754H65.507v-.754a.754.754,0,1,0-1.507,0v1.507a.754.754,0,0,0,.754.754H72.29a.754.754,0,0,0,.754-.754V32.754A.754.754,0,0,0,72.29,32Z" transform="translate(-28.986 -21.739)" fill="#107e7d"/></g></g></svg>