<svg xmlns="http://www.w3.org/2000/svg" width="59" height="59.612" viewBox="0 0 59 59.612"><g transform="translate(-793 -2741)"><circle cx="23.5" cy="23.5" r="23.5" transform="translate(805 2741)" fill="#f69c93" opacity="0.68"/><path d="M227.2,303.51a.751.751,0,0,0-.751.751v8.615a.794.794,0,0,1-.792.794H211.251a.751.751,0,0,0,0,1.5H225.66a2.3,2.3,0,0,0,2.293-2.3v-8.615A.751.751,0,0,0,227.2,303.51Z" transform="translate(603.568 2478.551)" fill="#107e7d"/><path d="M78.519,236.122H99.972a.751.751,0,1,0,0-1.5H78.519a.751.751,0,1,0,0,1.5Z" transform="translate(723.016 2540.545)" fill="#107e7d"/><path d="M78.519,281.306H99.972a.751.751,0,1,0,0-1.5H78.519a.751.751,0,1,0,0,1.5Z" transform="translate(723.016 2499.884)" fill="#107e7d"/><path d="M89.842,324.992H78.519a.751.751,0,0,0,0,1.5H89.842a.751.751,0,1,0,0-1.5Z" transform="translate(723.016 2459.219)" fill="#107e7d"/><path d="M1.251,48.788H14.813a.751.751,0,1,0,0-1.5H1.5v-5.45H20.833v5.45H18.416a.751.751,0,1,0,0,1.5h2.667a1.252,1.252,0,0,0,1.251-1.251v-5.95a1.252,1.252,0,0,0-1.251-1.251H1.251A1.252,1.252,0,0,0,0,41.587v5.95A1.252,1.252,0,0,0,1.251,48.788Z" transform="translate(793 2715.385)" fill="#107e7d"/><path d="M49.687,75.81a.751.751,0,0,0-.751-.751H35.749a.751.751,0,1,0,0,1.5H48.936A.751.751,0,0,0,49.687,75.81Z" transform="translate(761.505 2684.137)" fill="#107e7d"/><path d="M40.053,23.141A11.192,11.192,0,0,0,29.016,36.184H2.293A2.3,2.3,0,0,0,0,38.48V60.567a2.3,2.3,0,0,0,2.293,2.3H6.606v5.344A1.408,1.408,0,0,0,7.39,69.67a1.129,1.129,0,0,0,.428.082,1.641,1.641,0,0,0,1.16-.563L15.3,62.862h3.018a.751.751,0,1,0,0-1.5h-3.33a.75.75,0,0,0-.531.22L8.107,67.937V62.112a.751.751,0,0,0-.751-.751H2.293a.794.794,0,0,1-.792-.794V38.48a.794.794,0,0,1,.792-.794H29.375a11.239,11.239,0,0,0,7.645,7.42V48.45a.751.751,0,0,0,1.5,0V45.418a11.191,11.191,0,1,0,1.532-22.278Zm0,20.882a9.69,9.69,0,1,1,9.69-9.69A9.7,9.7,0,0,1,40.053,44.023Z" transform="translate(793 2730.859)" fill="#107e7d"/><path d="M357.535,158.283a.751.751,0,0,0,1.057,1.066,4.29,4.29,0,0,1,6.023,0,.751.751,0,0,0,1.057-1.066A5.8,5.8,0,0,0,357.535,158.283Z" transform="translate(471.45 2610.744)" fill="#107e7d"/><path d="M336.918,101.817a.751.751,0,1,0-1.5,0,1.041,1.041,0,0,1-2.081,0,.751.751,0,1,0-1.5,0,2.542,2.542,0,0,0,5.084,0Z" transform="translate(494.378 2660.733)" fill="#107e7d"/><path d="M422.07,101.066a.751.751,0,0,0-.751.751,1.041,1.041,0,0,1-2.081,0,.751.751,0,0,0-1.5,0,2.542,2.542,0,0,0,5.084,0A.751.751,0,0,0,422.07,101.066Z" transform="translate(417.073 2660.733)" fill="#107e7d"/></g></svg>