<svg xmlns="http://www.w3.org/2000/svg" width="57" height="60.062" viewBox="0 0 57 60.062"><g transform="translate(-793 -2454)"><circle cx="23.5" cy="23.5" r="23.5" transform="translate(803 2454)" fill="#f69c93" opacity="0.68"/><g transform="translate(836.23 2471.53)"><path d="M400.272,81.562H397.55a.6.6,0,0,0-.664.542h0v8.8c0,.366.433.555.88.555s.88-.19.88-.555V87.765h1.517c1.788,0,3.183-.853,3.183-3.074v-.081A2.758,2.758,0,0,0,400.272,81.562Zm1.314,3.264c0,1.056-.542,1.558-1.422,1.558h-1.517V83.106h1.517c.88,0,1.422.5,1.422,1.558Z" transform="translate(-396.886 -81.562)" fill="#107e7d"/></g><g transform="translate(805.439 2470.985)"><path d="M133.682,80.541a13.612,13.612,0,0,0-19.251,0,.794.794,0,1,0,1.123,1.124,12.023,12.023,0,0,1,17,0,.795.795,0,1,0,1.124-1.124Z" transform="translate(-114.198 -76.554)" fill="#107e7d"/></g><g transform="translate(808.717 2475.624)"><g transform="translate(0 0)"><path d="M157.217,121.773a8.987,8.987,0,0,0-12.7,0,.794.794,0,1,0,1.124,1.124,7.4,7.4,0,0,1,10.448,0,.794.794,0,1,0,1.124-1.124Z" transform="translate(-144.289 -119.147)" fill="#107e7d"/></g></g><g transform="translate(811.942 2480.184)"><path d="M180.38,162.3a4.42,4.42,0,0,0-6.244,0,.794.794,0,0,0,1.124,1.124,2.83,2.83,0,0,1,4,0,.794.794,0,0,0,1.123-1.124Z" transform="translate(-173.903 -161.009)" fill="#107e7d"/></g><g transform="translate(799.752 2491.136)"><g transform="translate(0 0)"><path d="M94.33,267.365c-.344-.189-.683-.4-1.008-.616l-5.255-3.55a9.576,9.576,0,0,0-5.38-1.647H73.042a9.55,9.55,0,0,0-6.783,2.8,12.875,12.875,0,0,1-3.157,2.31,2.067,2.067,0,0,0,.953,3.9h3.288a.794.794,0,0,0,0-1.589H64.054a.478.478,0,0,1-.221-.9,14.462,14.462,0,0,0,3.546-2.594,7.971,7.971,0,0,1,5.662-2.339H75.2v5.835H72.562a.794.794,0,0,0,0,1.589H94.346a1.186,1.186,0,0,0,1.184-1.184A2.3,2.3,0,0,0,94.33,267.365Zm-17.54,1.611v-5.835h5.9a7.993,7.993,0,0,1,4.491,1.375l5.255,3.55c.365.246.746.479,1.132.692a.74.74,0,0,1,.247.219Z" transform="translate(-61.987 -261.552)" fill="#107e7d"/></g></g><g transform="translate(813.275 2501.357)"><g transform="translate(0 0)"><path d="M189.391,355.388h-2.454a.795.795,0,0,0,0,1.589h2.454a.795.795,0,0,0,0-1.589Z" transform="translate(-186.142 -355.388)" fill="#107e7d"/></g></g><g transform="translate(793 2467)"><g transform="translate(0 0)"><path d="M55.084,73.66l-.251-.417a6.539,6.539,0,0,0-4.316-3.032L48.466,69.8v-10.4h5.308a1.984,1.984,0,0,0,1.982-1.982V41.952a1.984,1.984,0,0,0-1.982-1.982H38.3a1.984,1.984,0,0,0-1.982,1.982v5.869a.794.794,0,0,0,1.589,0V41.952a.394.394,0,0,1,.393-.393H53.774a.394.394,0,0,1,.393.393V57.425a.394.394,0,0,1-.393.393H38.3a.394.394,0,0,1-.393-.393V52.986a.794.794,0,0,0-1.589,0v4.439A1.984,1.984,0,0,0,38.3,59.407H44.32v9.572l-1.054-.21a11.2,11.2,0,0,1-3.815-1.8L34.2,63.416a12,12,0,0,0-6.744-2.064H17.807a11.971,11.971,0,0,0-8.5,3.513,10.433,10.433,0,0,1-5.237,2.827l-1.141.239A3.7,3.7,0,0,0,0,71.533v7.694a2.327,2.327,0,0,0,1.381,2.125l3.164,1.406a5.268,5.268,0,0,0,10.244.433H41.175a5.267,5.267,0,0,0,10.141,0h1.507a2.949,2.949,0,0,0,2.946-2.946V76.124A4.779,4.779,0,0,0,55.084,73.66ZM45.909,59.407h.968v10.08l-.968-.192ZM12.322,84.365A3.682,3.682,0,0,1,6.37,80.233l.015-.033c.019-.04.039-.08.059-.12l.029-.056c.018-.034.038-.069.057-.1l.041-.07c.018-.03.037-.06.056-.089l.053-.079c.018-.026.036-.052.054-.078s.043-.058.066-.087l.052-.067c.026-.032.053-.064.081-.1l.046-.054q.061-.067.125-.132l.011-.011.025-.024c.036-.036.073-.071.11-.1L7.28,79c.037-.033.075-.066.113-.1L7.4,78.9a3.689,3.689,0,0,1,4.634,0l0,0c.041.033.081.069.121.1l.022.019q.069.063.136.129c.048.048.094.1.139.147l.057.067c.023.027.047.055.069.082s.049.063.073.095l.04.054q.044.06.085.122l.014.021A3.688,3.688,0,0,1,12.322,84.365Zm36.527,0a3.682,3.682,0,0,1-5.684-4.619l.014-.02q.041-.062.085-.122l.04-.053c.024-.032.048-.064.074-.1s.045-.055.069-.082.038-.045.058-.068c.045-.05.091-.1.139-.147a3.682,3.682,0,0,1,5.207,0c.048.048.094.1.139.147.02.022.038.045.058.067s.047.054.069.082.05.063.074.1l.04.053c.029.04.058.081.085.122l.014.021A3.688,3.688,0,0,1,48.849,84.365Zm5.332-4.119h0A1.359,1.359,0,0,1,52.823,81.6H51.515a5.2,5.2,0,0,0-1.17-3.153l-.015-.019c-.045-.055-.092-.109-.14-.163l-.036-.042c-.051-.056-.1-.11-.156-.164l-.026-.028a5.238,5.238,0,0,0-2.439-1.386,5.349,5.349,0,0,0-2.324-.056,5.234,5.234,0,0,0-2.691,1.442l-.026.027c-.053.054-.106.109-.157.165l-.035.04c-.048.054-.1.109-.141.165l-.013.017A5.206,5.206,0,0,0,40.975,81.6H14.988a5.205,5.205,0,0,0-1.174-3.158l-.01-.013c-.048-.059-.1-.116-.148-.173l-.028-.032q-.089-.1-.183-.193a5.277,5.277,0,0,0-7.454,0c-.059.059-.115.119-.171.18l-.048.055q-.059.067-.115.134l-.05.061q-.058.073-.114.147l-.035.046q-.149.2-.277.421l-.007.012q-.063.106-.12.215l0,.006A5.237,5.237,0,0,0,4.5,81L2.026,79.9a.737.737,0,0,1-.437-.673V71.533a2.1,2.1,0,0,1,1.663-2.048l1.141-.239a12.019,12.019,0,0,0,6.033-3.257,10.391,10.391,0,0,1,7.381-3.049h9.645a10.421,10.421,0,0,1,5.854,1.792l5.255,3.55a12.67,12.67,0,0,0,4.394,2.045l7.251,1.442a4.947,4.947,0,0,1,3.265,2.294l.251.417a3.186,3.186,0,0,1,.457,1.645Z" transform="translate(0 -39.97)" fill="#107e7d"/></g></g><g transform="translate(800.307 2506.379)"><g transform="translate(0 0)"><path d="M71.2,402.206a2.412,2.412,0,1,0,0,3.411A2.4,2.4,0,0,0,71.2,402.206Zm-1.124,2.288a.823.823,0,1,1,0-1.164A.818.818,0,0,1,70.074,404.494Z" transform="translate(-67.08 -401.5)" fill="#107e7d"/></g></g><g transform="translate(836.834 2506.379)"><g transform="translate(0 0)"><path d="M406.547,402.207a2.412,2.412,0,1,0,.706,1.706A2.4,2.4,0,0,0,406.547,402.207Zm-1.124,2.288a.823.823,0,1,1,.241-.582A.818.818,0,0,1,405.423,404.494Z" transform="translate(-402.43 -401.5)" fill="#107e7d"/></g></g></g></svg>