<svg xmlns="http://www.w3.org/2000/svg" width="61" height="59.612" viewBox="0 0 61 59.612"><g transform="translate(-388 -2741)"><circle cx="23.5" cy="23.5" r="23.5" transform="translate(402 2741)" fill="#f69c93" opacity="0.68"/><g transform="translate(388 2762.676)"><g transform="translate(0)"><path d="M44.408,96.523l-4.386-1.175a1.639,1.639,0,0,0-1.4.278,1.33,1.33,0,0,0-.516.9l-.486,1.813a1.354,1.354,0,0,0,0,1.06,1.555,1.555,0,0,0,.184.325c-.464.967-.994,2.159-1.549,3.485l0,0c-.485,1.159-.99,2.419-1.489,3.72a7.321,7.321,0,0,0-4.5,4.806l-4.175,15.581a2.933,2.933,0,0,0,2.2,3.5l4.274,1.145h0l4.274,1.145a3.248,3.248,0,0,0,.84.111,3.085,3.085,0,0,0,1.4-.332,2.7,2.7,0,0,0,1.417-1.714l.574-2.143h0l3.6-13.436a7.32,7.32,0,0,0-1.494-6.413c.313-1.971.573-3.875.757-5.52l0-.014c.092-.824.165-1.582.215-2.251a1.569,1.569,0,0,0,.829-1L45.5,98.42A1.551,1.551,0,0,0,44.408,96.523Zm-5.678,34.19a.9.9,0,0,1-.483.563,1.324,1.324,0,0,1-.944.085l-4.274-1.145h0l-4.274-1.145a1.134,1.134,0,0,1-.912-1.274l.339-1.265,10.886,2.917Zm.81-3.024-10.886-2.917,3.129-11.678,10.886,2.917Zm3.5-13.463-10.7-2.866c.789-1.558,2.391-2.686,3.1-2.7a.911.911,0,0,0,.828-.587c.473-1.248.954-2.463,1.419-3.591H42c-.15,1.222-.337,2.559-.551,3.939l-.223-.06a.91.91,0,1,0-.471,1.759l1.045.28A5.354,5.354,0,0,1,43.045,114.227Zm.224-14.5h-.041l-.066.006-.022,0-.065.013-.019,0c-.026.007-.052.014-.077.023l-.024.01-.051.021-.03.015-.042.023-.029.017-.042.028-.024.017c-.018.014-.036.028-.054.044l-.008.007c-.02.018-.04.038-.059.058l-.011.013c-.014.016-.028.032-.041.049l-.016.021q-.016.022-.031.045l-.016.026c-.009.014-.017.029-.024.044l-.015.03c-.007.015-.013.029-.019.044s-.009.022-.013.033-.015.045-.021.068-.014.055-.019.083c0,.006,0,.012,0,.018s0,.008,0,.012c0,.027-.007.055-.009.082-.033.6-.091,1.3-.169,2.074H38.467c.471-1.082.909-2.029,1.286-2.776.012-.024.023-.048.033-.073l.006-.013,0-.015q.015-.042.026-.084c.006-.023.011-.046.015-.069s0-.023,0-.034,0-.033.006-.05,0-.021,0-.032,0-.036,0-.053,0-.019,0-.028,0-.039,0-.059,0-.015,0-.023c0-.023-.007-.046-.012-.069l0-.011q-.009-.041-.022-.081l0,0c-.008-.024-.017-.047-.027-.07l-.011-.025c-.007-.016-.015-.032-.023-.047l-.016-.029-.025-.041-.019-.029c-.01-.014-.021-.028-.032-.041l-.018-.023c-.017-.02-.035-.039-.054-.058l-.018-.016-.046-.04-.021-.016-.051-.036-.019-.012-.017-.011.405-1.512,3.861,1.034Z" transform="translate(-25.995 -95.295)" fill="#107e7d"/></g></g><g transform="translate(399.47 2775.008)"><path d="M153.15,230.8l-.021-.006a.91.91,0,1,0-.469,1.759l.021.006a.91.91,0,0,0,.469-1.759Z" transform="translate(-151.983 -230.763)" fill="#107e7d"/></g><g transform="translate(394.232 2784.34)"><g transform="translate(0)"><path d="M100.859,334.978a3.433,3.433,0,1,0,.343,2.6A3.41,3.41,0,0,0,100.859,334.978Zm-1.416,2.133a1.612,1.612,0,1,1-.161-1.223A1.613,1.613,0,0,1,99.444,337.111Z" transform="translate(-94.453 -333.261)" fill="#107e7d"/></g></g><g transform="translate(410.317 2762.676)"><g transform="translate(0)"><path d="M290.6,127.325l-4.175-15.581a7.32,7.32,0,0,0-4.5-4.806c-.5-1.3-1-2.562-1.489-3.72l0,0c-.556-1.326-1.085-2.518-1.549-3.485a1.556,1.556,0,0,0,.184-.325,1.354,1.354,0,0,0,0-1.06l-.486-1.813a1.33,1.33,0,0,0-.516-.9,1.639,1.639,0,0,0-1.4-.278l-4.386,1.175a1.551,1.551,0,0,0-1.1,1.9l.531,1.981a1.568,1.568,0,0,0,.829,1c.05.668.123,1.426.215,2.25,0,.006,0,.012,0,.017.184,1.644.444,3.548.757,5.518a7.321,7.321,0,0,0-1.494,6.413l4.175,15.581a2.7,2.7,0,0,0,1.417,1.714,3.084,3.084,0,0,0,1.4.332,3.242,3.242,0,0,0,.84-.111l8.548-2.29a3.141,3.141,0,0,0,1.829-1.311A2.7,2.7,0,0,0,290.6,127.325ZM273.558,99.737l-.041-.006-.047,0-.032,0h-.017l-.405-1.512,3.861-1.034.405,1.512-.017.011-.019.012-.051.036-.021.016-.045.039-.018.017c-.019.018-.037.038-.054.057l-.019.024-.031.04-.02.03-.025.04-.017.03c-.008.015-.016.031-.023.046l-.012.026c-.01.022-.018.045-.026.068l0,.006c-.009.027-.016.054-.022.081l0,.013c0,.022-.009.045-.012.068,0,.008,0,.016,0,.023s0,.039,0,.058,0,.019,0,.029,0,.035,0,.053,0,.021,0,.032,0,.033.006.05,0,.023,0,.034.01.048.016.072.015.05.024.075l.007.02,0,.008c.011.027.022.053.035.079.378.747.816,1.694,1.286,2.775h-3.736c-.079-.778-.136-1.478-.169-2.074,0-.028,0-.055-.009-.083,0,0,0-.007,0-.011s0-.012,0-.018c0-.027-.01-.053-.017-.079s-.014-.048-.023-.072-.008-.02-.012-.031-.013-.032-.02-.047l-.014-.028c-.008-.016-.017-.031-.026-.047l-.015-.025q-.015-.024-.032-.047l-.015-.021c-.013-.017-.026-.033-.04-.048l-.013-.015c-.018-.02-.037-.038-.057-.056l-.021-.018-.039-.032-.035-.025-.029-.019-.042-.025-.024-.013-.048-.024-.015-.006a.9.9,0,0,0-.173-.054ZM274.89,110.4l1.045-.28a.91.91,0,1,0-.471-1.759l-.223.06c-.214-1.381-.4-2.717-.551-3.939h4.3c.465,1.128.946,2.343,1.419,3.591a.91.91,0,0,0,.828.587c.708.018,2.31,1.145,3.1,2.7l-10.7,2.866A5.353,5.353,0,0,1,274.89,110.4Zm2.258,17.292-3.129-11.678,10.886-2.917,3.129,11.678Zm11.56.835a1.324,1.324,0,0,1-.775.546l-8.548,2.29a1.323,1.323,0,0,1-.944-.085.9.9,0,0,1-.483-.563l-.339-1.265,10.886-2.917.339,1.265A.9.9,0,0,1,288.708,128.525Z" transform="translate(-271.133 -95.295)" fill="#107e7d"/></g></g><g transform="translate(416.566 2775.008)"><g transform="translate(0)"><path d="M341.582,231.437a.91.91,0,0,0-1.115-.644l-.021.006a.91.91,0,1,0,.471,1.759l.021-.006A.91.91,0,0,0,341.582,231.437Z" transform="translate(-339.771 -230.762)" fill="#107e7d"/></g></g><g transform="translate(416.778 2784.34)"><g transform="translate(0)"><path d="M348.847,335.8a3.433,3.433,0,1,0-3.317,4.322h0a3.433,3.433,0,0,0,3.317-4.322Zm-1.92,1.694a1.6,1.6,0,0,1-.979.751,1.619,1.619,0,0,1-.419.056h0a1.612,1.612,0,1,1,1.4-.806Z" transform="translate(-342.098 -333.26)" fill="#107e7d"/></g></g><g transform="translate(408.029 2754)"><path d="M246.906,0a.91.91,0,0,0-.91.91V3.347a.91.91,0,1,0,1.821,0V.91A.91.91,0,0,0,246.906,0Z" transform="translate(-245.996)" fill="#107e7d"/></g><g transform="translate(402.961 2756.01)"><path d="M193.263,24.633l-1.238-2.11a.91.91,0,0,0-1.571.921l1.238,2.11a.91.91,0,0,0,1.571-.921Z" transform="translate(-190.329 -22.073)" fill="#107e7d"/></g><g transform="translate(411.858 2756.01)"><g transform="translate(0)"><path d="M290.674,22.2a.91.91,0,0,0-1.246.325l-1.238,2.11a.91.91,0,1,0,1.571.921L291,23.444A.91.91,0,0,0,290.674,22.2Z" transform="translate(-288.065 -22.073)" fill="#107e7d"/></g></g></g></svg>