<svg xmlns="http://www.w3.org/2000/svg" width="47" height="59.612" viewBox="0 0 47 59.612"><g transform="translate(-271 -1022)"><circle cx="23.5" cy="23.5" r="23.5" transform="translate(271 1022)" fill="#f69c93" opacity="0.68"/><g transform="translate(275 1035)"><path d="M141.8,8H123.759A3.763,3.763,0,0,0,120,11.759V50.853a3.763,3.763,0,0,0,3.759,3.759H141.8a3.763,3.763,0,0,0,3.759-3.759V11.759A3.763,3.763,0,0,0,141.8,8Zm-3.924,1.5-.451,2.255h-9.293L127.683,9.5Zm6.18,41.349a2.258,2.258,0,0,1-2.255,2.255H123.759a2.258,2.258,0,0,1-2.255-2.255V11.759A2.258,2.258,0,0,1,123.759,9.5h2.391l.631,3.155a.752.752,0,0,0,.737.6h10.525a.752.752,0,0,0,.737-.6l.631-3.155H141.8a2.258,2.258,0,0,1,2.255,2.255Z" transform="translate(-120 -8)" fill="#107e7d"/><path d="M157.263,456h-4.511a.752.752,0,1,0,0,1.5h4.511a.752.752,0,1,0,0-1.5Z" transform="translate(-148.993 -413.899)" fill="#107e7d"/><path d="M225.5,456h-.752a.752.752,0,1,0,0,1.5h.752a.752.752,0,1,0,0-1.5Z" transform="translate(-214.226 -413.899)" fill="#107e7d"/></g></g></svg>