<svg xmlns="http://www.w3.org/2000/svg" width="56" height="60" viewBox="0 0 56 60"><g transform="translate(-796 -1747)"><circle cx="23.5" cy="23.5" r="23.5" transform="translate(805 1747)" fill="#f69c93" opacity="0.68"/><path d="M31.032,36.548a3.035,3.035,0,0,0,3.032-3.032V32H28v1.516A3.035,3.035,0,0,0,31.032,36.548Zm1.516-3.032a1.516,1.516,0,1,1-3.032,0Z" transform="translate(788.468 1751.5)" fill="#107e7d"/><path d="M20.306,10.326,24.414,6.9A3.341,3.341,0,0,0,22.267,1h-.13a3.323,3.323,0,0,0-1.83.544A3.323,3.323,0,0,0,18.476,1h-.13A3.34,3.34,0,0,0,16.2,6.9ZM17.052,3.053a1.817,1.817,0,0,1,1.294-.537h.13a1.815,1.815,0,0,1,1.294.537l.536.535.536-.535a1.817,1.817,0,0,1,1.294-.537h.13a1.823,1.823,0,0,1,1.176,3.223L20.306,8.352,17.17,5.739a1.818,1.818,0,0,1-.118-2.686Z" transform="translate(791.613 1759)" fill="#107e7d"/><path d="M6.306,20.326,10.414,16.9A3.341,3.341,0,0,0,8.267,11h-.13a3.323,3.323,0,0,0-1.83.544A3.323,3.323,0,0,0,4.476,11h-.13A3.34,3.34,0,0,0,2.2,16.9ZM3.052,13.053a1.817,1.817,0,0,1,1.294-.537h.13a1.815,1.815,0,0,1,1.294.537l.536.535.536-.535a1.817,1.817,0,0,1,1.294-.537h.13a1.823,1.823,0,0,1,1.176,3.223L6.306,18.352,3.17,15.739a1.818,1.818,0,0,1-.118-2.686Z" transform="translate(795 1756.581)" fill="#107e7d"/><path d="M40.306,10.326,44.414,6.9A3.341,3.341,0,0,0,42.267,1h-.13a3.323,3.323,0,0,0-1.83.544A3.323,3.323,0,0,0,38.476,1h-.13A3.34,3.34,0,0,0,36.2,6.9ZM37.052,3.053a1.817,1.817,0,0,1,1.294-.537h.13a1.815,1.815,0,0,1,1.294.537l.536.535.536-.535a1.817,1.817,0,0,1,1.294-.537h.13a1.823,1.823,0,0,1,1.176,3.223L40.306,8.352,37.17,5.739a1.818,1.818,0,0,1-.118-2.686Z" transform="translate(786.774 1759)" fill="#107e7d"/><path d="M50.2,16.9l4.107,3.423L58.414,16.9A3.341,3.341,0,0,0,56.267,11h-.13a3.323,3.323,0,0,0-1.83.544A3.323,3.323,0,0,0,52.476,11h-.13A3.34,3.34,0,0,0,50.2,16.9Zm.853-3.85a1.817,1.817,0,0,1,1.294-.537h.13a1.815,1.815,0,0,1,1.294.537l.536.535.536-.535a1.817,1.817,0,0,1,1.294-.537h.13a1.823,1.823,0,0,1,1.176,3.223l-3.136,2.613L51.17,15.739a1.818,1.818,0,0,1-.118-2.686Z" transform="translate(783.387 1756.581)" fill="#107e7d"/><path d="M45.576,24.613H44.524l-.707-.707a2.762,2.762,0,0,0-4.573,1.079l-.24.721L28.515,35.5l-.622-1.244a6.5,6.5,0,0,0,2.768-3.574h.662A3.016,3.016,0,0,0,33.7,25.792l.407-1.625A8.186,8.186,0,0,0,26.172,14H22.828a8.183,8.183,0,0,0-7.938,10.167L15.3,25.79a3.016,3.016,0,0,0,2.382,4.887h.663a6.491,6.491,0,0,0,2.768,3.574l-.622,1.244L10,25.706l-.24-.722a2.762,2.762,0,0,0-4.573-1.079l-.707.707H3.424a2.424,2.424,0,0,0-.476,4.8l2.212.442L15.4,40.831V51.145H33.6V40.831L43.84,29.856l2.212-.442a2.424,2.424,0,0,0-.476-4.8ZM21.468,38.319l1.194.955a5.857,5.857,0,0,0-1.194.5Zm9.855-9.158h-.378l.217-3.032h.161a1.516,1.516,0,1,1,0,3.032ZM16.161,27.645a1.518,1.518,0,0,1,1.516-1.516h.161l.216,3.032h-.377A1.518,1.518,0,0,1,16.161,27.645Zm1.516-4.09v.179c0,.1,0,.2.011.294l.042.584h-.053a3.011,3.011,0,0,0-1.064.2L16.36,23.8a6.669,6.669,0,0,1,6.468-8.284h3.345A6.668,6.668,0,0,1,32.64,23.8l-.254,1.016a3.008,3.008,0,0,0-1.064-.2H31.27l.03-.425a3.3,3.3,0,0,0,.78-2.135v-.472H30.565v.472a1.8,1.8,0,0,1-3.208,1.125l-.9-1.122a5.282,5.282,0,0,0-4.144-1.991h-.088a5.753,5.753,0,0,0-3.2.968,3.027,3.027,0,0,0-1.35,2.523Zm1.894,5.565-.371-5.2q-.007-.092-.007-.184v-.179a1.513,1.513,0,0,1,.675-1.261,4.239,4.239,0,0,1,2.357-.713h.088A3.771,3.771,0,0,1,25.273,23l.9,1.122a3.32,3.32,0,0,0,3.534,1.109l-.277,3.886a4.942,4.942,0,0,1-9.858,0ZM24.5,35.226a6.378,6.378,0,0,0,2.019-.333l.819,1.64L24.5,38.8l-2.838-2.27.819-1.64a6.378,6.378,0,0,0,2.019.333Zm3.032,3.094v1.452a5.857,5.857,0,0,0-1.194-.5ZM2.516,27.037a.909.909,0,0,1,.908-.908H5.1l1.151-1.152a1.247,1.247,0,0,1,2.063.487l.134.4-3.1,2.482-2.1-.421a.911.911,0,0,1-.731-.891Zm29.565,13.2v9.4H16.919v-9.4L6.661,29.242,9.3,27.13l10.651,9.941v6.049l1.294-1.295a4.388,4.388,0,0,1,3.124-1.294h.261a4.387,4.387,0,0,1,3.124,1.294l1.294,1.295V37.072L39.7,27.13l2.64,2.112ZM45.754,27.928l-2.1.421-3.1-2.482.134-.4a1.246,1.246,0,0,1,2.063-.487L43.9,26.129h1.68a.908.908,0,0,1,.178,1.8Z" transform="translate(795 1755.855)" fill="#107e7d"/></g></svg>