<svg xmlns="http://www.w3.org/2000/svg" width="59" height="59.724" viewBox="0 0 59 59.724"><g transform="translate(-1232 -1387)"><circle cx="23.5" cy="23.5" r="23.5" transform="translate(1244 1387)" fill="#f69c93" opacity="0.68"/><g transform="translate(1232 1400)"><path d="M41.833,310.1a4.588,4.588,0,0,0,1.106-2.991v-.493a4.611,4.611,0,0,0-9.223,0v.493a4.588,4.588,0,0,0,1.106,2.991,6.537,6.537,0,0,0-3.977,2.988,6.537,6.537,0,0,0-3.977-2.988,4.588,4.588,0,0,0,1.106-2.991v-.493a4.611,4.611,0,0,0-9.223,0v.493a4.588,4.588,0,0,0,1.106,2.991,6.537,6.537,0,0,0-3.977,2.988A6.537,6.537,0,0,0,11.9,310.1a4.588,4.588,0,0,0,1.106-2.991v-.493a4.611,4.611,0,0,0-9.223,0v.493A4.588,4.588,0,0,0,4.89,310.1,6.524,6.524,0,0,0,0,316.4v3.848a.913.913,0,0,0,.913.913h44.9a.913.913,0,0,0,.913-.913V316.4a6.524,6.524,0,0,0-4.89-6.308Zm-6.292-3.484a2.786,2.786,0,1,1,5.572,0v.493a2.786,2.786,0,1,1-5.572,0Zm-14.966,0a2.786,2.786,0,1,1,5.572,0v.493a2.786,2.786,0,1,1-5.572,0Zm-14.966,0a2.786,2.786,0,1,1,5.572,0v.493a2.786,2.786,0,1,1-5.572,0ZM1.825,316.4a4.693,4.693,0,0,1,4.687-4.687h3.766a4.693,4.693,0,0,1,4.687,4.687v2.936H1.825Zm14.966,0a4.693,4.693,0,0,1,4.687-4.687h3.766a4.693,4.693,0,0,1,4.687,4.687v2.936H16.791ZM44.9,319.339H31.757V316.4a4.693,4.693,0,0,1,4.687-4.687h3.766A4.693,4.693,0,0,1,44.9,316.4Zm0,0" transform="translate(0 -274.441)" fill="#107e7d"/><path d="M31.593,18.3l-.008,5.067a.912.912,0,0,0,1.49.708L38.23,19.86h5.7L47.2,23.942a.913.913,0,0,0,1.454-.037l2.91-4.046H57.6l5.131,4.218a.913.913,0,0,0,1.492-.705V18.29A9.93,9.93,0,0,0,58.865,0H36.929a9.93,9.93,0,0,0-5.336,18.3Zm5.336-16.48H58.865a8.106,8.106,0,0,1,4,15.157.912.912,0,0,0-.462.793v3.666l-3.892-3.2a.911.911,0,0,0-.579-.208H51.091a.912.912,0,0,0-.741.38l-2.48,3.449-2.785-3.486a.913.913,0,0,0-.713-.343H37.9a.914.914,0,0,0-.578.206l-3.913,3.2.006-3.653a.912.912,0,0,0-.464-.8A8.105,8.105,0,0,1,36.929,1.825Zm0,0" transform="translate(-24.535)" fill="#107e7d"/><path d="M367.1,41.825h.034a.913.913,0,0,0,0-1.825H367.1a.913.913,0,0,0,0,1.825Zm0,0" transform="translate(-332.771 -36.35)" fill="#107e7d"/><path d="M405.14,56.11a4.447,4.447,0,0,1,.169,6.556.912.912,0,1,0,1.269,1.312,6.272,6.272,0,0,0-.237-9.243.913.913,0,0,0-1.2,1.375Zm0,0" transform="translate(-367.885 -49.536)" fill="#107e7d"/><path d="M200.467,63.129a22.013,22.013,0,0,0,2.3,1.848.913.913,0,0,0,1.026,0,22.013,22.013,0,0,0,2.3-1.848c1.676-1.55,2.49-2.875,2.49-4.049a3.588,3.588,0,0,0-3.458-3.7,3.3,3.3,0,0,0-1.849.573,3.307,3.307,0,0,0-1.849-.573,3.587,3.587,0,0,0-3.458,3.7C197.977,60.255,198.791,61.579,200.467,63.129Zm.968-5.921a1.525,1.525,0,0,1,1.159.555.913.913,0,0,0,1.381,0,1.525,1.525,0,0,1,1.159-.555,1.767,1.767,0,0,1,1.633,1.872c0,1.021-1.923,2.862-3.482,4.022-1.559-1.158-3.481-3-3.481-4.022A1.767,1.767,0,0,1,201.435,57.208Zm0,0" transform="translate(-179.91 -50.329)" fill="#107e7d"/></g></g></svg>