<svg xmlns="http://www.w3.org/2000/svg" width="56.612" height="59.612" viewBox="0 0 56.612 59.612"><g transform="translate(-791.388 -1460)"><circle cx="23.5" cy="23.5" r="23.5" transform="translate(801 1460)" fill="#f69c93" opacity="0.68"/><g transform="translate(791.388 1473)"><g transform="translate(0 0)"><path d="M43.5,29.6V24.86A5.438,5.438,0,0,0,40.4,19.954V3.884A3.889,3.889,0,0,0,36.513,0H3.884A3.889,3.889,0,0,0,0,3.884V38.067a3.889,3.889,0,0,0,3.884,3.884h.994L5.9,45.019a2.331,2.331,0,0,0,2.207,1.593h3.976a2.331,2.331,0,0,0,2.207-1.593l1.025-3.068h9.757L26.1,45.022a2.34,2.34,0,0,0,2.211,1.59h3.978a2.283,2.283,0,0,0,.5-.062,3.832,3.832,0,0,0,.615.062h9.322a3.889,3.889,0,0,0,3.884-3.884V33.405A3.891,3.891,0,0,0,43.5,29.6ZM41.951,24.86v4.661H40.4V24.86a2.331,2.331,0,0,0-4.661,0v4.661H34.182V24.86a3.884,3.884,0,1,1,7.769,0Zm-3.107,4.661H37.29V24.86a.777.777,0,0,1,1.554,0Zm-9.322,3.884V37.29H5.438a.777.777,0,0,1-.777-.777V5.438a.777.777,0,0,1,.777-.777H34.959a.777.777,0,0,1,.777.777V19.954a5.438,5.438,0,0,0-3.107,4.906V29.6A3.891,3.891,0,0,0,29.521,33.405ZM1.554,38.067V3.884A2.331,2.331,0,0,1,3.884,1.554H36.513a2.331,2.331,0,0,1,2.331,2.331v15.6a4.887,4.887,0,0,0-1.554,0V5.438a2.331,2.331,0,0,0-2.331-2.331H5.438A2.331,2.331,0,0,0,3.107,5.438V36.513a2.331,2.331,0,0,0,2.331,2.331H29.521V40.4H3.884A2.331,2.331,0,0,1,1.554,38.067Zm11.271,6.46a.777.777,0,0,1-.737.531H8.111a.777.777,0,0,1-.737-.531l-.858-2.576h7.166Zm14.746,0-.856-2.576h2.807v.777a3.844,3.844,0,0,0,.8,2.331H28.309a.785.785,0,0,1-.739-.533Zm17.488-1.8a2.331,2.331,0,0,1-2.331,2.331H33.405a2.331,2.331,0,0,1-2.331-2.331V33.405a2.331,2.331,0,0,1,2.331-2.331h9.322a2.331,2.331,0,0,1,2.331,2.331Z" transform="translate(0 0)" fill="#107e7d"/><path d="M50.353,48.107a3.111,3.111,0,1,0-4.746.009l-1.082,2.312a1.332,1.332,0,0,0,1.211,1.893h4.475a1.332,1.332,0,0,0,1.209-1.9Zm-4.272,2.661.932-1.992a1.572,1.572,0,0,0-.233-1.672,1.554,1.554,0,1,1,2.747-1,1.524,1.524,0,0,1-.363,1,1.554,1.554,0,0,0-.233,1.669l.935,1.993Z" transform="translate(-9.907 -9.594)" fill="#107e7d"/><path d="M23.1,14A10.1,10.1,0,1,0,33.2,24.1,10.1,10.1,0,0,0,23.1,14Zm0,18.645A8.546,8.546,0,1,1,31.645,24.1,8.546,8.546,0,0,1,23.1,32.645Z" transform="translate(-2.901 -3.124)" fill="#107e7d"/><path d="M25.107,23a3.107,3.107,0,1,0,3.107,3.107A3.107,3.107,0,0,0,25.107,23Zm0,4.661a1.554,1.554,0,1,1,1.554-1.554A1.554,1.554,0,0,1,25.107,27.661Z" transform="translate(-4.909 -5.132)" fill="#107e7d"/><path d="M25.777,20.331a.777.777,0,0,0,.777-.777v-.777a.777.777,0,0,0-1.554,0v.777A.777.777,0,0,0,25.777,20.331Z" transform="translate(-5.578 -4.016)" fill="#107e7d"/><path d="M20.123,22.221a.777.777,0,0,0,1.1-1.1l-.549-.549a.777.777,0,0,0-1.1,1.1Z" transform="translate(-4.319 -4.542)" fill="#107e7d"/><path d="M19.331,26.777A.777.777,0,0,0,18.554,26h-.777a.777.777,0,1,0,0,1.554h.777A.777.777,0,0,0,19.331,26.777Z" transform="translate(-3.793 -5.801)" fill="#107e7d"/><path d="M20.117,31.175l-.549.549a.777.777,0,1,0,1.1,1.1l.549-.549a.777.777,0,1,0-1.1-1.1Z" transform="translate(-4.313 -6.903)" fill="#107e7d"/><path d="M25.777,33a.777.777,0,0,0-.777.777v.777a.777.777,0,1,0,1.554,0v-.777A.777.777,0,0,0,25.777,33Z" transform="translate(-5.578 -7.363)" fill="#107e7d"/><path d="M31.273,31.175a.777.777,0,1,0-1.1,1.1l.549.549a.777.777,0,0,0,1.1-1.1Z" transform="translate(-6.68 -6.903)" fill="#107e7d"/><path d="M32,26.777a.777.777,0,0,0,.777.777h.777a.777.777,0,0,0,0-1.554h-.777A.777.777,0,0,0,32,26.777Z" transform="translate(-7.14 -5.801)" fill="#107e7d"/><path d="M30.727,22.449a.777.777,0,0,0,.549-.228l.549-.549a.777.777,0,0,0-1.1-1.1l-.549.549a.777.777,0,0,0,.549,1.326Z" transform="translate(-6.683 -4.542)" fill="#107e7d"/></g></g></g></svg>