<svg xmlns="http://www.w3.org/2000/svg" width="13.71" height="25" viewBox="0 0 13.71 25"><path d="M131.694,8h-9.677A2.018,2.018,0,0,0,120,10.016V30.984A2.018,2.018,0,0,0,122.016,33h9.677a2.018,2.018,0,0,0,2.016-2.016V10.016A2.018,2.018,0,0,0,131.694,8Zm-2.1.806-.242,1.21h-4.984l-.242-1.21ZM132.9,30.984a1.211,1.211,0,0,1-1.21,1.21h-9.677a1.211,1.211,0,0,1-1.21-1.21V10.016a1.211,1.211,0,0,1,1.21-1.21H123.3l.338,1.692a.4.4,0,0,0,.4.324h5.645a.4.4,0,0,0,.4-.324l.338-1.692h1.282a1.211,1.211,0,0,1,1.21,1.21Z" transform="translate(-120 -8)" fill="#242830"/><path d="M154.823,456H152.4a.4.4,0,1,0,0,.806h2.419a.4.4,0,1,0,0-.806Z" transform="translate(-150.387 -433.419)" fill="#242830"/><path d="M224.806,456h-.4a.4.4,0,0,0,0,.806h.4a.4.4,0,1,0,0-.806Z" transform="translate(-218.758 -433.419)" fill="#242830"/></svg>