<svg xmlns="http://www.w3.org/2000/svg" width="56" height="59.612" viewBox="0 0 56 59.612"><g transform="translate(-390 -1460)"><circle cx="23.5" cy="23.5" r="23.5" transform="translate(399 1460)" fill="#f69c93" opacity="0.68"/><g transform="translate(381.274 1473)"><g transform="translate(16.201 16.489)"><g transform="translate(0)"><path d="M93.785,181.545a2,2,0,0,0-2.8.344.683.683,0,1,0,1.076.841.629.629,0,0,1,.882-.108.683.683,0,0,0,.841-1.076Z" transform="translate(-90.842 -181.123)" fill="#107e7d"/></g></g><g transform="translate(23.211 15.629)"><g transform="translate(0)"><path d="M170.778,172.091a2,2,0,0,0-2.8.344.683.683,0,1,0,1.076.841.629.629,0,0,1,.882-.108.683.683,0,0,0,.841-1.076Z" transform="translate(-167.835 -171.669)" fill="#107e7d"/></g></g><g transform="translate(19.303 19.755)"><g transform="translate(0)"><path d="M130.973,218.541l-.078-.635a1.035,1.035,0,0,0-1.154-.9l-3.921.481a1.035,1.035,0,0,0-.9,1.154l.078.635a3.01,3.01,0,1,0,5.976-.734Zm-2.788,2a1.647,1.647,0,0,1-1.833-1.432l-.038-.307,3.265-.4.038.307A1.647,1.647,0,0,1,128.186,220.541Z" transform="translate(-124.912 -216.998)" fill="#107e7d"/></g></g><g transform="translate(8.726 0)"><g transform="translate(0 0)"><path d="M30.3,3.148A6.03,6.03,0,0,0,27,.048a.683.683,0,0,0-.86.322c-.735,1.43-2.509,2.447-4.747,2.722l-3.948.485a.683.683,0,0,0,.166,1.355l3.948-.485a7.681,7.681,0,0,0,5.456-2.89A5.367,5.367,0,0,1,29.541,7.11c-.251,1.947-1.274,3.41-2.489,3.559L13.767,12.3a2.017,2.017,0,0,0-1.754,2.245l.163,1.33L11.141,16,10.1,7.555a1.687,1.687,0,0,1,1.469-1.88l3.314-.407a.683.683,0,1,0-.166-1.355l-3.314.407a3.056,3.056,0,0,0-2.658,3.4l1.072,8.732a2.359,2.359,0,0,0,1.366,4.282,2.454,2.454,0,0,0,.29-.018l1.274-.157.125,1.017a8.044,8.044,0,0,0,7.965,7.063,8.175,8.175,0,0,0,1-.061,8.019,8.019,0,0,0,5.178-2.811.683.683,0,1,0-1.046-.878,6.675,6.675,0,0,1-11.737-3.48l-.208-1.7a.683.683,0,0,0-.761-.594l-1.949.24a1.069,1.069,0,0,1-.126.008.995.995,0,0,1-.375-1.915h0a.984.984,0,0,1,.254-.066l1.952-.24a.683.683,0,0,0,.594-.761l-.246-2.007a.65.65,0,0,1,.565-.724l12.607-1.548.943,7.676a6.609,6.609,0,0,1-.3,2.943.683.683,0,1,0,1.294.436,7.963,7.963,0,0,0,.358-3.546l-.952-7.752c1.541-.549,2.714-2.3,3.009-4.581A7.6,7.6,0,0,0,30.3,3.148Z" transform="translate(-8.726 0)" fill="#107e7d"/></g></g><g transform="translate(43.067 34.461)"><path d="M389.006,379.3a2,2,0,0,0-2.8-.344.683.683,0,0,0,.841,1.076.629.629,0,0,1,.882.108.683.683,0,1,0,1.076-.841Z" transform="translate(-385.945 -378.53)" fill="#107e7d"/></g><g transform="translate(36.058 33.601)"><path d="M312.015,369.843a2,2,0,0,0-2.8-.344.683.683,0,0,0,.841,1.076.629.629,0,0,1,.882.108.683.683,0,1,0,1.076-.841Z" transform="translate(-308.954 -369.077)" fill="#107e7d"/></g><g transform="translate(37.085 37.727)"><path d="M325.413,414.895l-3.921-.482a1.03,1.03,0,0,0-.763.212c-.49.383-.376.9-.468,1.324a3.014,3.014,0,0,0,4.841,2.739,3.466,3.466,0,0,0,1.213-2.64A1.036,1.036,0,0,0,325.413,414.895Zm-1.152,2.718a1.645,1.645,0,0,1-2.645-1.5l.038-.307,3.265.4A1.848,1.848,0,0,1,324.261,417.613Z" transform="translate(-320.236 -414.406)" fill="#107e7d"/></g><g transform="translate(30.031 18.181)"><path d="M265.824,204.97a3.033,3.033,0,0,0-2.034-1.151l-9.382-1.152a1.279,1.279,0,0,1-.879-.522,5.941,5.941,0,0,0-2.555-2.022.683.683,0,1,0-.521,1.262,4.575,4.575,0,0,1,1.968,1.558,2.649,2.649,0,0,0,1.82,1.079l9.382,1.152a1.689,1.689,0,0,1,1.469,1.88l-1.037,8.448-1.035-.127.163-1.33a2.017,2.017,0,0,0-1.754-2.245l-13.285-1.631a4.582,4.582,0,0,1-3.964-5.287,4.6,4.6,0,0,1,3.982-3.811.683.683,0,1,0-.163-1.356,5.976,5.976,0,0,0-5.167,4.949,5.947,5.947,0,0,0,4.473,6.739l-.948,7.715a8,8,0,0,0,.208,3.046.683.683,0,0,0,1.32-.351,6.642,6.642,0,0,1-.172-2.529l.943-7.676,12.607,1.548a.65.65,0,0,1,.565.724l-.247,2.007a.683.683,0,0,0,.595.761l1.952.24a.995.995,0,0,1-.119,1.982,1.062,1.062,0,0,1-.123-.008l-1.952-.24a.683.683,0,0,0-.761.594l-.208,1.7a6.674,6.674,0,0,1-12.007,3.138.683.683,0,1,0-1.1.808,8.026,8.026,0,0,0,5.5,3.222,8.154,8.154,0,0,0,1,.061,8.044,8.044,0,0,0,7.965-7.063l.125-1.017c1.219.145,1.314.175,1.564.175a2.361,2.361,0,0,0,1.367-4.284l1.072-8.729A3.032,3.032,0,0,0,265.824,204.97Z" transform="translate(-242.754 -199.71)" fill="#107e7d"/></g><g transform="translate(42.752 5.728)"><path d="M383.165,62.914a.683.683,0,0,0-.683.683v1.671a.683.683,0,1,0,1.366,0V63.6A.683.683,0,0,0,383.165,62.914Z" transform="translate(-382.482 -62.914)" fill="#107e7d"/></g><g transform="translate(42.752 10.866)"><path d="M383.165,119.35a.683.683,0,0,0-.683.683V121.7a.683.683,0,0,0,1.366,0v-1.671A.683.683,0,0,0,383.165,119.35Z" transform="translate(-382.482 -119.35)" fill="#107e7d"/></g><g transform="translate(44.485 9.132)"><path d="M403.875,100.312H402.2a.683.683,0,1,0,0,1.366h1.671a.683.683,0,1,0,0-1.366Z" transform="translate(-401.521 -100.312)" fill="#107e7d"/></g><g transform="translate(39.348 9.132)"><path d="M347.439,100.312h-1.671a.683.683,0,0,0,0,1.366h1.671a.683.683,0,1,0,0-1.366Z" transform="translate(-345.085 -100.312)" fill="#107e7d"/></g><g transform="translate(18.357 32.709)"><path d="M115.2,359.286a.683.683,0,0,0-.683.683v1.671a.683.683,0,1,0,1.366,0v-1.671A.683.683,0,0,0,115.2,359.286Z" transform="translate(-114.517 -359.286)" fill="#107e7d"/></g><g transform="translate(18.357 37.847)"><path d="M115.2,415.723a.683.683,0,0,0-.683.683v1.671a.683.683,0,1,0,1.366,0v-1.671A.683.683,0,0,0,115.2,415.723Z" transform="translate(-114.517 -415.723)" fill="#107e7d"/></g><g transform="translate(20.09 36.114)"><g transform="translate(0)"><path d="M135.909,396.684h-1.671a.683.683,0,1,0,0,1.366h1.671a.683.683,0,1,0,0-1.366Z" transform="translate(-133.555 -396.684)" fill="#107e7d"/></g></g><g transform="translate(14.952 36.114)"><g transform="translate(0)"><path d="M79.474,396.684H77.8a.683.683,0,1,0,0,1.366h1.671a.683.683,0,1,0,0-1.366Z" transform="translate(-77.12 -396.684)" fill="#107e7d"/></g></g></g></g></svg>