<svg xmlns="http://www.w3.org/2000/svg" width="63.291" height="60.012" viewBox="0 0 63.291 60.012"><g transform="translate(-1193.709 -2454)"><circle cx="23.5" cy="23.5" r="23.5" transform="translate(1210 2454)" fill="#f69c93" opacity="0.68"/><path d="M62.994,53.54H61.4V51.532A6.959,6.959,0,0,0,57.9,45.5a8.836,8.836,0,0,0-5.82-1.041,7.245,7.245,0,0,1-3.469-.272l-2.571-.857a3.2,3.2,0,0,0-1.325-1.872l-1.045-.7a4.553,4.553,0,0,0-5.257.146l-1.946,1.46a9.712,9.712,0,0,0-12.966,5.7l-1.658,4.7A5.582,5.582,0,0,0,16.8,49.558a.8.8,0,0,0-.8.8V63.1a7.94,7.94,0,0,0,2.363,5.656L16.012,82.076a.8.8,0,0,0,.784.935h1.593a.8.8,0,0,0,.74-.5L23.71,71.057c.085,0,.169.006.255.006H29L33.58,82.511a.8.8,0,0,0,.74.5h1.593a.8.8,0,0,0,.781-.953l-2.2-10.995h1.418a.8.8,0,0,0,.8-.8,5.558,5.558,0,0,0-1.679-3.983h2.754l6.093,13.71v2.22a.8.8,0,0,0,.8.8h18.32a.8.8,0,0,0,.8-.8V54.337a.8.8,0,0,0-.8-.8Zm-.8,3.983H36.353L32.447,56.3l.877-1.169H62.2ZM49.342,76.936,46.92,68.458l6.167,8.736-1.767,1.06ZM45.594,63.817l-.205-.719h8.555l4.271,3.559V79.134L54.8,76.855Zm12.621.767L56.432,63.1h1.782Zm0-3.078H44.872a3.968,3.968,0,0,0-2.4-2.07l-1.024-.32H58.215ZM37.972,53.54H34.519L36,51.567Zm13.554-3.983a3.507,3.507,0,0,1,3.5,3.5v.48H50.25V49.558ZM46.012,45l2.1.7a8.845,8.845,0,0,0,4.235.332,7.239,7.239,0,0,1,4.768.853,5.362,5.362,0,0,1,2.7,4.646V53.54H56.622v-.48a5.1,5.1,0,0,0-5.1-5.1h-8.6l1.794-1.2A3.165,3.165,0,0,0,46.012,45Zm-4.321,1.87L39.973,44.91c-.039-.044-.078-.087-.118-.131h1.3l1.469,1.469Zm-2.319-4.688a2.96,2.96,0,0,1,3.418-.095l1.045.7a1.6,1.6,0,0,1,.138,2.553l-1.921-1.921a.8.8,0,0,0-.563-.233H38.037ZM25.006,48.6a8.12,8.12,0,0,1,13.768-2.645l2.911,3.327a.8.8,0,0,0,.6.272h6.372V53.54H41.545a3.165,3.165,0,0,1-2.253-.933L34.086,47.4,32.96,48.528l1.9,1.9-4.126,5.5H22.42ZM17.85,81.418h-.1l2.037-11.545a7.919,7.919,0,0,0,2.3.963Zm17.091,0h-.082L30.717,71.064H32.87Zm.1-11.948H23.965A6.379,6.379,0,0,1,17.593,63.1V51.231a3.99,3.99,0,0,1,3.186,3.9v3.983a7.177,7.177,0,0,0,7.169,7.169h3.186a3.99,3.99,0,0,1,3.9,3.186Zm3.994-4.306a.8.8,0,0,0-.728-.473H27.947a5.582,5.582,0,0,1-5.576-5.576V57.523h8.64L42,60.956a2.383,2.383,0,0,1,1.585,1.624l4.139,14.486-2.687,1.612ZM52.639,81.418H45.471V80.276l3.164-1.9,4,2.67Zm.148-2.186,1.423-.854,4,2.67v.37H54.232v-.8a.8.8,0,0,0-.355-.663ZM62.2,81.418h-2.39v-22.3H62.2Z" transform="translate(1177.709 2431)" fill="#107e7d"/></g></svg>