<svg xmlns="http://www.w3.org/2000/svg" width="59" height="60" viewBox="0 0 59 60"><g transform="translate(-851 -1387)"><circle cx="23.5" cy="23.5" r="23.5" transform="translate(863 1387)" fill="#f69c93" opacity="0.68"/><g transform="translate(851.004 1395.934)"><path d="M69.841,25.575a4.671,4.671,0,0,0-1.648-3.258A4.271,4.271,0,0,0,65,21.326,4.57,4.57,0,0,0,61.354,24l-1.433.127-1.414-.4a.355.355,0,0,1-.237-.233,13.269,13.269,0,0,0-1.745-3.434l.5-1.345,1.579-1.708a3.211,3.211,0,0,0,2.332-1.116,3.264,3.264,0,0,0-.1-4.359,3.209,3.209,0,0,0-2.373-1.005,3.241,3.241,0,0,0-3.212,3.378L53.67,15.616l-1.323.614a13.276,13.276,0,0,0-6.508-1.811l-.865-1.38-.305-1.517a4.115,4.115,0,0,0,1.459-4.06,4.539,4.539,0,0,0-8.136-1.421,4.052,4.052,0,0,0-.6,3.111,4.28,4.28,0,0,0,2.765,3.112l.337,1.675-.268,1.633a13.286,13.286,0,0,0-3.357,2.159l-.992-.177-1.121-.846a3.242,3.242,0,1,0-2.571,3.785l.939.709.421.862a.14.14,0,0,1,0,.121,13.175,13.175,0,0,0-1.211,5.544c0,.357.015.721.044,1.08a.148.148,0,0,1-.059.136l-1.586,1.13-1.81.57a4.245,4.245,0,0,0-3.934-.673l-.08.028-.022.008a.717.717,0,1,0,.486,1.35l.034-.012.034-.012a2.813,2.813,0,0,1,2.825.634.717.717,0,0,0,.709.164l2.3-.723a.718.718,0,0,0,.2-.1l1.679-1.2a1.591,1.591,0,0,0,.656-1.42c-.026-.321-.039-.645-.039-.964a11.749,11.749,0,0,1,1.08-4.944,1.57,1.57,0,0,0-.016-1.35l-.5-1.016a.717.717,0,0,0-.212-.258l-1.35-1.019a.717.717,0,0,0-.651-.11,1.811,1.811,0,0,1-1.641-.277,1.807,1.807,0,0,1-.281-2.622,1.825,1.825,0,0,1,2.373-.324,1.8,1.8,0,0,1,.8,1.353.717.717,0,0,0,.283.513l1.5,1.128a.717.717,0,0,0,.306.134l1.507.269a.717.717,0,0,0,.614-.18,11.868,11.868,0,0,1,3.566-2.285.717.717,0,0,0,.435-.547l.353-2.15a.718.718,0,0,0,0-.258l-.447-2.22a.717.717,0,0,0-.524-.553,2.889,2.889,0,0,1-2.16-2.159,2.628,2.628,0,0,1,.392-2.018,3.106,3.106,0,0,1,5.538.927,2.719,2.719,0,0,1-1.239,2.85.717.717,0,0,0-.314.744l.421,2.094a.719.719,0,0,0,.1.239l1.036,1.653a1.082,1.082,0,0,0,.923.51h0a11.838,11.838,0,0,1,6.119,1.7,1.081,1.081,0,0,0,1.015.057l1.622-.752a.718.718,0,0,0,.225-.164l1.894-2.048a.717.717,0,0,0,.182-.6A1.807,1.807,0,0,1,59.8,12.526a1.818,1.818,0,0,1,.056,2.427,1.8,1.8,0,0,1-1.5.618.717.717,0,0,0-.581.228l-1.894,2.048a.716.716,0,0,0-.146.237l-.616,1.655a1.08,1.08,0,0,0,.141,1.014,11.844,11.844,0,0,1,1.654,3.2,1.788,1.788,0,0,0,1.21,1.157l1.54.432a.718.718,0,0,0,.257.024l2-.177a.717.717,0,0,0,.615-.479,3.162,3.162,0,0,1,2.615-2.157,2.848,2.848,0,0,1,2.126.663,3.247,3.247,0,0,1,1.139,2.268,3.5,3.5,0,0,1-.313,1.74.717.717,0,1,0,1.3.605,4.938,4.938,0,0,0,.443-2.456Z" transform="translate(-22.082 0)" fill="#107e7d"/><path d="M44.149,246.873a2.909,2.909,0,0,1-.617.131,2.939,2.939,0,0,1-2.957-1.752.717.717,0,0,0-.713-.411l-1.878.166a.717.717,0,0,0-.249.068l-1.417.684a1.787,1.787,0,0,0-.991,1.369,11.792,11.792,0,0,1-.673,2.6,1.782,1.782,0,0,0,.1,1.515l.5.9a.716.716,0,0,0,.226.245l1.4.942a.717.717,0,0,0,.656.074,1.811,1.811,0,0,1,1.654.186,1.807,1.807,0,0,1,.426,2.6,1.825,1.825,0,0,1-2.351.455,1.8,1.8,0,0,1-.87-1.306.717.717,0,0,0-.311-.5l-1.556-1.044a.716.716,0,0,0-.313-.116l-.979-.119a1.843,1.843,0,0,0-1.5.5,11.94,11.94,0,0,1-2.617,1.892,1.843,1.843,0,0,0-.962,1.5l-.124,1.984a.716.716,0,0,0,.02.22l.616,2.443a.717.717,0,0,0,.5.516,2.427,2.427,0,0,1,1.7,1.739,2.419,2.419,0,0,1-1.822,2.953,2.419,2.419,0,0,1-2.216-4.09.717.717,0,0,0,.193-.687l-.619-2.458a.717.717,0,0,0-.086-.2l-.955-1.536a2.11,2.11,0,0,0-1.811-.994h0a11.917,11.917,0,0,1-2.308-.225,2.106,2.106,0,0,0-1.949.615l-1.263,1.332a.72.72,0,0,0-.126.182l-1.413,2.932a.717.717,0,0,0,0,.628A1.807,1.807,0,0,1,14,265.19a1.827,1.827,0,0,1-.783-2.254,1.792,1.792,0,0,1,1.266-1.078.717.717,0,0,0,.484-.387l1.423-2.951a.716.716,0,0,0,.064-.211l.279-1.981A1.778,1.778,0,0,0,16.1,254.7a11.936,11.936,0,0,1-2.7-3.092,1.78,1.78,0,0,0-1.5-.847l-1.978-.019a.711.711,0,0,0-.222.033l-2.165.681a.717.717,0,0,0-.5.6,2.813,2.813,0,0,1-5.47.562,2.775,2.775,0,0,1,.018-1.779A.717.717,0,0,0,.23,250.38,4.2,4.2,0,0,0,.2,253.071,4.266,4.266,0,0,0,4.252,256a4.208,4.208,0,0,0,1.265-.195A4.254,4.254,0,0,0,8.384,252.7l1.64-.516,1.864.018a.336.336,0,0,1,.284.157,13.367,13.367,0,0,0,3.021,3.463.337.337,0,0,1,.117.308L15.047,258l-1.236,2.564a3.241,3.241,0,0,0-.515,5.879,3.214,3.214,0,0,0,2.565.27,3.254,3.254,0,0,0,1.948-1.685,3.219,3.219,0,0,0,.13-2.5l1.224-2.54,1.186-1.251a.678.678,0,0,1,.629-.195,13.377,13.377,0,0,0,2.595.253h0a.681.681,0,0,1,.585.317l.9,1.441.5,1.977a3.836,3.836,0,0,0-.678,3.637,3.887,3.887,0,0,0,3.678,2.652,3.77,3.77,0,0,0,.82-.09,3.853,3.853,0,0,0,2.9-4.7,3.865,3.865,0,0,0-2.294-2.631l-.493-1.958.117-1.872a.4.4,0,0,1,.206-.328,13.38,13.38,0,0,0,2.932-2.119.414.414,0,0,1,.335-.116l.809.1,1.166.782a3.242,3.242,0,1,0,2.357-3.922l-.977-.656-.421-.753a.352.352,0,0,1-.018-.3,13.23,13.23,0,0,0,.755-2.92.356.356,0,0,1,.193-.275l1.3-.627,1.276-.113a4.316,4.316,0,0,0,5.081,1.923.717.717,0,0,0-.449-1.363Z" transform="translate(0 -217.747)" fill="#107e7d"/><path d="M153.779,146.743a10.047,10.047,0,1,0,3.06,1.286.717.717,0,1,0-.767,1.212,8.574,8.574,0,1,1-2.621-1.1.717.717,0,1,0,.328-1.4Z" transform="translate(-127.909 -128.791)" fill="#107e7d"/><path d="M50.467,17.907a3.373,3.373,0,1,0-3.373-3.373A3.377,3.377,0,0,0,50.467,17.907Zm0-5.312a1.939,1.939,0,1,1-1.939,1.939A1.941,1.941,0,0,1,50.467,12.6Z" transform="translate(-42.594 -6.417)" fill="#107e7d"/><path d="M51.4,386.653a2.472,2.472,0,1,0,2.472,2.472A2.474,2.474,0,0,0,51.4,386.653Zm0,3.509a1.037,1.037,0,1,1,1.037-1.037A1.038,1.038,0,0,1,51.4,390.162Z" transform="translate(-44.255 -345.998)" fill="#107e7d"/><path d="M380.346,408.111a3.3,3.3,0,1,0,3.3,3.3A3.3,3.3,0,0,0,380.346,408.111Zm0,5.168a1.867,1.867,0,1,1,1.867-1.867A1.869,1.869,0,0,1,380.346,413.279Z" transform="translate(-340.99 -365.403)" fill="#107e7d"/><path d="M190.078,195.038a3.126,3.126,0,1,0-3.126,3.126A3.13,3.13,0,0,0,190.078,195.038Zm-3.126,1.692a1.692,1.692,0,1,1,1.692-1.692A1.694,1.694,0,0,1,186.951,196.73Z" transform="translate(-166.249 -169.881)" fill="#107e7d"/><path d="M214.447,282.907a2.357,2.357,0,1,0-2.357-2.357A2.36,2.36,0,0,0,214.447,282.907Zm0-3.279a.922.922,0,1,1-.922.922A.923.923,0,0,1,214.447,279.628Z" transform="translate(-191.81 -247.91)" fill="#107e7d"/><path d="M268.673,231.691a2.094,2.094,0,1,0,2.094-2.094A2.1,2.1,0,0,0,268.673,231.691Zm2.094-.66a.66.66,0,1,1-.66.66A.66.66,0,0,1,270.767,231.031Z" transform="translate(-242.982 -203.962)" fill="#107e7d"/></g></g></svg>