<svg xmlns="http://www.w3.org/2000/svg" width="59" height="59.723" viewBox="0 0 59 59.723"><g transform="translate(-1232 -1779)"><circle cx="23.5" cy="23.5" r="23.5" transform="translate(1244 1779)" fill="#f69c93" opacity="0.68"/><g transform="translate(1223.992 1792)"><g transform="translate(8.008 0)"><g transform="translate(0 0)"><path d="M51.773,27.368h-.7v-6.3a2.957,2.957,0,0,0-1.254-2.416V17.8a2.258,2.258,0,0,0-2.256-2.256h-.522l2-2.931a2.159,2.159,0,0,0-.568-3L34.917.375a2.156,2.156,0,0,0-3,.568L20.222,18.11H16.966l.785-7.951a.236.236,0,0,1,.148-.2,5.061,5.061,0,0,0,2.469-2.006.234.234,0,0,1,.221-.1l5.106.5a.666.666,0,1,0,.131-1.325l-5.106-.5a1.558,1.558,0,0,0-1.476.714A3.721,3.721,0,0,1,17.43,8.715a1.556,1.556,0,0,0-1,1.313l-.8,8.082h-.849L16.022,5.535a.825.825,0,0,1,.9-.74L27.242,5.814a.666.666,0,1,0,.131-1.325L17.054,3.47A2.159,2.159,0,0,0,14.7,5.4l-1,10.136H11.99A2.258,2.258,0,0,0,9.734,17.8v.585a2.962,2.962,0,0,0-1.726,2.689v22.7a2.962,2.962,0,0,0,2.959,2.959H48.115a2.962,2.962,0,0,0,2.959-2.959v-6.3h.7a1.5,1.5,0,0,0,1.5-1.5V28.864A1.5,1.5,0,0,0,51.773,27.368Zm-4.209-10.5h0a.925.925,0,0,1,.924.924v.339a2.967,2.967,0,0,0-.373-.024H45.29l.844-1.239ZM33.021,1.693a.82.82,0,0,1,.528-.346.837.837,0,0,1,.155-.015.819.819,0,0,1,.463.143l13.554,9.237a.826.826,0,0,1,.217,1.146l-4.26,6.252H42.656l2.089-3.065a1.556,1.556,0,0,0,.073-1.651,3.721,3.721,0,0,1-.446-2.3A1.557,1.557,0,0,0,43.7,9.6L36.672,4.815a1.557,1.557,0,0,0-1.637-.08,3.722,3.722,0,0,1-2.3.425,1.576,1.576,0,0,0-1.51.671L22.856,18.11H21.833ZM33.315,13a5.494,5.494,0,0,0-5.473,5.112H24.467l7.857-11.53h0a.238.238,0,0,1,.195-.1l.03,0A5.062,5.062,0,0,0,35.678,5.9a.235.235,0,0,1,.244.015L42.948,10.7a.235.235,0,0,1,.1.221,5.06,5.06,0,0,0,.607,3.123.236.236,0,0,1-.013.247l-2.6,3.815H38.788A5.494,5.494,0,0,0,33.315,13Zm4.138,5.112H29.176a4.155,4.155,0,0,1,8.277,0ZM11.066,17.8a.925.925,0,0,1,.924-.924h1.574l-.122,1.239H11.066ZM9.34,21.069a1.629,1.629,0,0,1,1.628-1.628H48.115a1.629,1.629,0,0,1,1.628,1.628v1.847H9.34Zm40.4,22.7a1.629,1.629,0,0,1-1.628,1.628H10.967A1.629,1.629,0,0,1,9.34,43.765V41.917h3.59a.666.666,0,0,0,0-1.331H9.34V24.248h40.4v3.119h-6.33a5.055,5.055,0,0,0-4.542,2.845l-.009.017c-.007.014-.013.029-.02.044a5.019,5.019,0,0,0-.252.644v0a5.051,5.051,0,0,0,4.823,6.548h6.33v3.119H17.193a.666.666,0,0,0,0,1.331h32.55Zm2.2-7.795a.165.165,0,0,1-.165.165H43.412a3.721,3.721,0,0,1-3.269-1.947q-.043-.079-.082-.16-.078-.162-.141-.333a3.722,3.722,0,0,1,0-2.554q.063-.171.141-.333.039-.081.082-.16A3.721,3.721,0,0,1,43.412,28.7h8.361a.165.165,0,0,1,.165.165V35.97Z" transform="translate(-8.008 0)" fill="#107e7d"/></g></g><g transform="translate(40.867 29.716)"><path d="M370.782,325.627a2.7,2.7,0,1,0,2.7,2.7A2.7,2.7,0,0,0,370.782,325.627Zm0,4.071a1.37,1.37,0,1,1,1.37-1.37A1.371,1.371,0,0,1,370.782,329.7Z" transform="translate(-368.081 -325.627)" fill="#107e7d"/></g></g></g></svg>