<svg xmlns="http://www.w3.org/2000/svg" xmlns:xlink="http://www.w3.org/1999/xlink" width="1920" height="964.814" viewBox="0 0 1920 964.814"><defs><clipPath id="a"><path d="M.182,47.761A2014.4,2014.4,0,0,0,250,156.486c33.127,11.848,191.12,68.352,315,85.157,227.586,30.872,370.444-68.124,592-136.252,164.448-50.567,413.857-96.922,763.181-57.63l0,950.1H.182Z" transform="translate(1920.185 998.864) rotate(180)" fill="#fff7f0"/></clipPath><clipPath id="b"><circle cx="92" cy="92" r="92" transform="translate(425 423)" fill="#f69c93"/></clipPath></defs><g transform="translate(-0.003 -1)"><path d="M.182,47.761A2014.4,2014.4,0,0,0,250,156.486c33.127,11.848,191.12,68.352,315,85.157,227.586,30.872,370.444-68.124,592-136.252,164.448-50.567,413.857-96.922,763.181-57.63l0,950.1H.182Z" transform="translate(1920.185 998.864) rotate(180)" fill="#fff7f0"/><g clip-path="url(#a)"><circle cx="381.5" cy="381.5" r="381.5" transform="translate(-20 -253)" fill="#fff"/><g transform="translate(1794 811)" fill="none" stroke="#fff" stroke-width="9"><circle cx="109" cy="109" r="109" stroke="none"/><circle cx="109" cy="109" r="104.5" fill="none"/></g><g transform="translate(-77 737)" fill="none" stroke="#fff" stroke-width="9"><circle cx="146" cy="146" r="146" stroke="none"/><circle cx="146" cy="146" r="141.5" fill="none"/></g><g transform="translate(993 757)" fill="none" stroke="#fff" stroke-width="5"><circle cx="35.5" cy="35.5" r="35.5" stroke="none"/><circle cx="35.5" cy="35.5" r="33" fill="none"/></g><g transform="translate(1774 592)" fill="none" stroke="#fff" stroke-width="5"><circle cx="35.5" cy="35.5" r="35.5" stroke="none"/><circle cx="35.5" cy="35.5" r="33" fill="none"/></g><g transform="translate(0 42)" clip-path="url(#b)"><g transform="translate(562 436)" fill="none" stroke="#fff" stroke-width="2"><circle cx="35.5" cy="35.5" r="35.5" stroke="none"/><circle cx="35.5" cy="35.5" r="34.5" fill="none"/></g></g></g></g></svg>