<svg xmlns="http://www.w3.org/2000/svg" xmlns:xlink="http://www.w3.org/1999/xlink" width="414.088" height="668.27" viewBox="0 0 414.088 668.27"><defs><clipPath id="a"><rect width="414" height="564" fill="#fff"/></clipPath></defs><g transform="translate(8789.088 1834.397)"><path d="M.18,47.761C6.175,62.192,49.038,83.438,134.2,75.226c42.488-4.1,92.051-32.831,138.993-47.446,60.388-18.8,118.427,8.212,140.987,19.981V689.583H.18Z" transform="translate(-8374.908 -1144.814) rotate(180)" fill="#fff7f0"/><g transform="translate(-8789 -1834)" clip-path="url(#a)"><circle cx="152.5" cy="152.5" r="152.5" transform="translate(-96 -85)" fill="#fff"/><g transform="translate(-22 420)" fill="none" stroke="#fff" stroke-width="2"><ellipse cx="63.5" cy="63" rx="63.5" ry="63" stroke="none"/><ellipse cx="63.5" cy="63" rx="62.5" ry="62" fill="none"/></g><g transform="translate(122 397)" fill="none" stroke="#fff" stroke-width="2"><circle cx="20" cy="20" r="20" stroke="none"/><circle cx="20" cy="20" r="19" fill="none"/></g><g transform="translate(270 383)" fill="none" stroke="#fff" stroke-width="2"><circle cx="36.5" cy="36.5" r="36.5" stroke="none"/><circle cx="36.5" cy="36.5" r="35.5" fill="none"/></g></g></g></svg>